<svg width="100" height="100" viewBox="0 0 100 100" fill="none" xmlns="http://www.w3.org/2000/svg">
<mask id="mask0_31_2" style="mask-type:luminance" maskUnits="userSpaceOnUse" x="0" y="0" width="100" height="100">
<path d="M3.44828 37.931H0V41.3793H3.44828V37.931Z" fill="white"/>
<path d="M3.44828 41.3793H0V44.8275H3.44828V41.3793Z" fill="white"/>
<path d="M3.44828 48.2759H0V51.7242H3.44828V48.2759Z" fill="white"/>
<path d="M3.44828 51.7241H0V55.1724H3.44828V51.7241Z" fill="white"/>
<path d="M3.44828 55.1724H0V58.6206H3.44828V55.1724Z" fill="white"/>
<path d="M3.44828 58.6207H0V62.069H3.44828V58.6207Z" fill="white"/>
<path d="M3.44828 68.9655H0V72.4137H3.44828V68.9655Z" fill="white"/>
<path d="M6.89652 34.4828H3.44824V37.9311H6.89652V34.4828Z" fill="white"/>
<path d="M6.89652 48.2759H3.44824V51.7242H6.89652V48.2759Z" fill="white"/>
<path d="M6.89652 55.1724H3.44824V58.6206H6.89652V55.1724Z" fill="white"/>
<path d="M6.89652 58.6207H3.44824V62.069H6.89652V58.6207Z" fill="white"/>
<path d="M6.89652 65.5172H3.44824V68.9655H6.89652V65.5172Z" fill="white"/>
<path d="M6.89652 68.9655H3.44824V72.4137H6.89652V68.9655Z" fill="white"/>
<path d="M10.3448 27.5862H6.89648V31.0345H10.3448V27.5862Z" fill="white"/>
<path d="M10.3448 34.4828H6.89648V37.9311H10.3448V34.4828Z" fill="white"/>
<path d="M10.3448 37.931H6.89648V41.3793H10.3448V37.931Z" fill="white"/>
<path d="M10.3448 44.8275H6.89648V48.2758H10.3448V44.8275Z" fill="white"/>
<path d="M10.3448 55.1724H6.89648V58.6206H10.3448V55.1724Z" fill="white"/>
<path d="M10.3448 58.6207H6.89648V62.069H10.3448V58.6207Z" fill="white"/>
<path d="M13.793 34.4828H10.3447V37.9311H13.793V34.4828Z" fill="white"/>
<path d="M13.793 44.8275H10.3447V48.2758H13.793V44.8275Z" fill="white"/>
<path d="M13.793 55.1724H10.3447V58.6206H13.793V55.1724Z" fill="white"/>
<path d="M13.793 62.069H10.3447V65.5172H13.793V62.069Z" fill="white"/>
<path d="M17.2412 27.5862H13.793V31.0345H17.2412V27.5862Z" fill="white"/>
<path d="M17.2412 31.0344H13.793V34.4827H17.2412V31.0344Z" fill="white"/>
<path d="M17.2412 37.931H13.793V41.3793H17.2412V37.931Z" fill="white"/>
<path d="M17.2412 41.3793H13.793V44.8275H17.2412V41.3793Z" fill="white"/>
<path d="M17.2412 44.8275H13.793V48.2758H17.2412V44.8275Z" fill="white"/>
<path d="M17.2412 48.2759H13.793V51.7242H17.2412V48.2759Z" fill="white"/>
<path d="M17.2412 51.7241H13.793V55.1724H17.2412V51.7241Z" fill="white"/>
<path d="M17.2412 55.1724H13.793V58.6206H17.2412V55.1724Z" fill="white"/>
<path d="M17.2412 62.069H13.793V65.5172H17.2412V62.069Z" fill="white"/>
<path d="M20.6895 27.5862H17.2412V31.0345H20.6895V27.5862Z" fill="white"/>
<path d="M20.6895 31.0344H17.2412V34.4827H20.6895V31.0344Z" fill="white"/>
<path d="M20.6895 34.4828H17.2412V37.9311H20.6895V34.4828Z" fill="white"/>
<path d="M20.6895 37.931H17.2412V41.3793H20.6895V37.931Z" fill="white"/>
<path d="M20.6895 41.3793H17.2412V44.8275H20.6895V41.3793Z" fill="white"/>
<path d="M20.6895 44.8275H17.2412V48.2758H20.6895V44.8275Z" fill="white"/>
<path d="M20.6895 48.2759H17.2412V51.7242H20.6895V48.2759Z" fill="white"/>
<path d="M20.6895 62.069H17.2412V65.5172H20.6895V62.069Z" fill="white"/>
<path d="M20.6895 65.5172H17.2412V68.9655H20.6895V65.5172Z" fill="white"/>
<path d="M24.1377 27.5862H20.6895V31.0345H24.1377V27.5862Z" fill="white"/>
<path d="M24.1377 34.4828H20.6895V37.9311H24.1377V34.4828Z" fill="white"/>
<path d="M24.1377 41.3793H20.6895V44.8275H24.1377V41.3793Z" fill="white"/>
<path d="M24.1377 48.2759H20.6895V51.7242H24.1377V48.2759Z" fill="white"/>
<path d="M24.1377 55.1724H20.6895V58.6206H24.1377V55.1724Z" fill="white"/>
<path d="M24.1377 62.069H20.6895V65.5172H24.1377V62.069Z" fill="white"/>
<path d="M24.1377 68.9655H20.6895V72.4137H24.1377V68.9655Z" fill="white"/>
<path d="M27.586 34.4828H24.1377V37.9311H27.586V34.4828Z" fill="white"/>
<path d="M27.586 44.8275H24.1377V48.2758H27.586V44.8275Z" fill="white"/>
<path d="M27.586 55.1724H24.1377V58.6206H27.586V55.1724Z" fill="white"/>
<path d="M27.586 58.6207H24.1377V62.069H27.586V58.6207Z" fill="white"/>
<path d="M27.586 62.069H24.1377V65.5172H27.586V62.069Z" fill="white"/>
<path d="M31.0342 3.44824H27.5859V6.89652H31.0342V3.44824Z" fill="white"/>
<path d="M31.0342 13.7931H27.5859V17.2414H31.0342V13.7931Z" fill="white"/>
<path d="M31.0342 20.6897H27.5859V24.138H31.0342V20.6897Z" fill="white"/>
<path d="M31.0342 27.5862H27.5859V31.0345H31.0342V27.5862Z" fill="white"/>
<path d="M31.0342 37.931H27.5859V41.3793H31.0342V37.931Z" fill="white"/>
<path d="M31.0342 41.3793H27.5859V44.8275H31.0342V41.3793Z" fill="white"/>
<path d="M31.0342 58.6207H27.5859V62.069H31.0342V58.6207Z" fill="white"/>
<path d="M31.0342 62.069H27.5859V65.5172H31.0342V62.069Z" fill="white"/>
<path d="M31.0342 72.4138H27.5859V75.8621H31.0342V72.4138Z" fill="white"/>
<path d="M31.0342 79.3103H27.5859V82.7586H31.0342V79.3103Z" fill="white"/>
<path d="M31.0342 82.7585H27.5859V86.2068H31.0342V82.7585Z" fill="white"/>
<path d="M31.0342 89.6552H27.5859V93.1034H31.0342V89.6552Z" fill="white"/>
<path d="M34.4825 0H31.0342V3.44828H34.4825V0Z" fill="white"/>
<path d="M34.4825 6.89661H31.0342V10.3449H34.4825V6.89661Z" fill="white"/>
<path d="M34.4825 10.3448H31.0342V13.7931H34.4825V10.3448Z" fill="white"/>
<path d="M34.4825 13.7931H31.0342V17.2414H34.4825V13.7931Z" fill="white"/>
<path d="M34.4825 17.2413H31.0342V20.6896H34.4825V17.2413Z" fill="white"/>
<path d="M34.4825 24.1379H31.0342V27.5862H34.4825V24.1379Z" fill="white"/>
<path d="M34.4825 27.5862H31.0342V31.0345H34.4825V27.5862Z" fill="white"/>
<path d="M34.4825 37.931H31.0342V41.3793H34.4825V37.931Z" fill="white"/>
<path d="M34.4825 44.8275H31.0342V48.2758H34.4825V44.8275Z" fill="white"/>
<path d="M34.4825 48.2759H31.0342V51.7242H34.4825V48.2759Z" fill="white"/>
<path d="M34.4825 68.9655H31.0342V72.4137H34.4825V68.9655Z" fill="white"/>
<path d="M34.4825 72.4138H31.0342V75.8621H34.4825V72.4138Z" fill="white"/>
<path d="M34.4825 75.8621H31.0342V79.3103H34.4825V75.8621Z" fill="white"/>
<path d="M34.4825 79.3103H31.0342V82.7586H34.4825V79.3103Z" fill="white"/>
<path d="M34.4825 82.7585H31.0342V86.2068H34.4825V82.7585Z" fill="white"/>
<path d="M34.4825 86.2069H31.0342V89.6552H34.4825V86.2069Z" fill="white"/>
<path d="M34.4825 93.1034H31.0342V96.5517H34.4825V93.1034Z" fill="white"/>
<path d="M34.4825 96.5518H31.0342V100H34.4825V96.5518Z" fill="white"/>
<path d="M37.9307 3.44824H34.4824V6.89652H37.9307V3.44824Z" fill="white"/>
<path d="M37.9307 6.89661H34.4824V10.3449H37.9307V6.89661Z" fill="white"/>
<path d="M37.9307 20.6897H34.4824V24.138H37.9307V20.6897Z" fill="white"/>
<path d="M37.9307 24.1379H34.4824V27.5862H37.9307V24.1379Z" fill="white"/>
<path d="M37.9307 27.5862H34.4824V31.0345H37.9307V27.5862Z" fill="white"/>
<path d="M37.9307 37.931H34.4824V41.3793H37.9307V37.931Z" fill="white"/>
<path d="M37.9307 44.8275H34.4824V48.2758H37.9307V44.8275Z" fill="white"/>
<path d="M37.9307 51.7241H34.4824V55.1724H37.9307V51.7241Z" fill="white"/>
<path d="M37.9307 58.6207H34.4824V62.069H37.9307V58.6207Z" fill="white"/>
<path d="M37.9307 62.069H34.4824V65.5172H37.9307V62.069Z" fill="white"/>
<path d="M37.9307 72.4138H34.4824V75.8621H37.9307V72.4138Z" fill="white"/>
<path d="M37.9307 79.3103H34.4824V82.7586H37.9307V79.3103Z" fill="white"/>
<path d="M37.9307 86.2069H34.4824V89.6552H37.9307V86.2069Z" fill="white"/>
<path d="M37.9307 96.5518H34.4824V100H37.9307V96.5518Z" fill="white"/>
<path d="M41.3789 0H37.9307V3.44828H41.3789V0Z" fill="white"/>
<path d="M41.3789 10.3448H37.9307V13.7931H41.3789V10.3448Z" fill="white"/>
<path d="M41.3789 13.7931H37.9307V17.2414H41.3789V13.7931Z" fill="white"/>
<path d="M41.3789 17.2413H37.9307V20.6896H41.3789V17.2413Z" fill="white"/>
<path d="M41.3789 27.5862H37.9307V31.0345H41.3789V27.5862Z" fill="white"/>
<path d="M41.3789 31.0344H37.9307V34.4827H41.3789V31.0344Z" fill="white"/>
<path d="M41.3789 34.4828H37.9307V37.9311H41.3789V34.4828Z" fill="white"/>
<path d="M41.3789 44.8275H37.9307V48.2758H41.3789V44.8275Z" fill="white"/>
<path d="M41.3789 48.2759H37.9307V51.7242H41.3789V48.2759Z" fill="white"/>
<path d="M41.3789 58.6207H37.9307V62.069H41.3789V58.6207Z" fill="white"/>
<path d="M41.3789 62.069H37.9307V65.5172H41.3789V62.069Z" fill="white"/>
<path d="M41.3789 65.5172H37.9307V68.9655H41.3789V65.5172Z" fill="white"/>
<path d="M41.3789 72.4138H37.9307V75.8621H41.3789V72.4138Z" fill="white"/>
<path d="M41.3789 79.3103H37.9307V82.7586H41.3789V79.3103Z" fill="white"/>
<path d="M41.3789 93.1034H37.9307V96.5517H41.3789V93.1034Z" fill="white"/>
<path d="M41.3789 96.5518H37.9307V100H41.3789V96.5518Z" fill="white"/>
<path d="M44.8272 10.3448H41.3789V13.7931H44.8272V10.3448Z" fill="white"/>
<path d="M44.8272 13.7931H41.3789V17.2414H44.8272V13.7931Z" fill="white"/>
<path d="M44.8272 20.6897H41.3789V24.138H44.8272V20.6897Z" fill="white"/>
<path d="M44.8272 24.1379H41.3789V27.5862H44.8272V24.1379Z" fill="white"/>
<path d="M44.8272 31.0344H41.3789V34.4827H44.8272V31.0344Z" fill="white"/>
<path d="M44.8272 37.931H41.3789V41.3793H44.8272V37.931Z" fill="white"/>
<path d="M44.8272 41.3793H41.3789V44.8275H44.8272V41.3793Z" fill="white"/>
<path d="M44.8272 44.8275H41.3789V48.2758H44.8272V44.8275Z" fill="white"/>
<path d="M44.8272 51.7241H41.3789V55.1724H44.8272V51.7241Z" fill="white"/>
<path d="M44.8272 55.1724H41.3789V58.6206H44.8272V55.1724Z" fill="white"/>
<path d="M44.8272 58.6207H41.3789V62.069H44.8272V58.6207Z" fill="white"/>
<path d="M44.8272 62.069H41.3789V65.5172H44.8272V62.069Z" fill="white"/>
<path d="M44.8272 65.5172H41.3789V68.9655H44.8272V65.5172Z" fill="white"/>
<path d="M44.8272 68.9655H41.3789V72.4137H44.8272V68.9655Z" fill="white"/>
<path d="M44.8272 79.3103H41.3789V82.7586H44.8272V79.3103Z" fill="white"/>
<path d="M44.8272 86.2069H41.3789V89.6552H44.8272V86.2069Z" fill="white"/>
<path d="M44.8272 96.5518H41.3789V100H44.8272V96.5518Z" fill="white"/>
<path d="M48.2754 0H44.8271V3.44828H48.2754V0Z" fill="white"/>
<path d="M48.2754 6.89661H44.8271V10.3449H48.2754V6.89661Z" fill="white"/>
<path d="M48.2754 10.3448H44.8271V13.7931H48.2754V10.3448Z" fill="white"/>
<path d="M48.2754 17.2413H44.8271V20.6896H48.2754V17.2413Z" fill="white"/>
<path d="M48.2754 27.5862H44.8271V31.0345H48.2754V27.5862Z" fill="white"/>
<path d="M48.2754 31.0344H44.8271V34.4827H48.2754V31.0344Z" fill="white"/>
<path d="M48.2754 34.4828H44.8271V37.9311H48.2754V34.4828Z" fill="white"/>
<path d="M48.2754 37.931H44.8271V41.3793H48.2754V37.931Z" fill="white"/>
<path d="M48.2754 62.069H44.8271V65.5172H48.2754V62.069Z" fill="white"/>
<path d="M48.2754 75.8621H44.8271V79.3103H48.2754V75.8621Z" fill="white"/>
<path d="M48.2754 82.7585H44.8271V86.2068H48.2754V82.7585Z" fill="white"/>
<path d="M48.2754 89.6552H44.8271V93.1034H48.2754V89.6552Z" fill="white"/>
<path d="M48.2754 96.5518H44.8271V100H48.2754V96.5518Z" fill="white"/>
<path d="M51.7246 6.89661H48.2764V10.3449H51.7246V6.89661Z" fill="white"/>
<path d="M51.7246 13.7931H48.2764V17.2414H51.7246V13.7931Z" fill="white"/>
<path d="M51.7246 20.6897H48.2764V24.138H51.7246V20.6897Z" fill="white"/>
<path d="M51.7246 27.5862H48.2764V31.0345H51.7246V27.5862Z" fill="white"/>
<path d="M51.7246 31.0344H48.2764V34.4827H51.7246V31.0344Z" fill="white"/>
<path d="M51.7246 37.931H48.2764V41.3793H51.7246V37.931Z" fill="white"/>
<path d="M51.7246 41.3793H48.2764V44.8275H51.7246V41.3793Z" fill="white"/>
<path d="M51.7246 44.8275H48.2764V48.2758H51.7246V44.8275Z" fill="white"/>
<path d="M51.7246 48.2759H48.2764V51.7242H51.7246V48.2759Z" fill="white"/>
<path d="M51.7246 51.7241H48.2764V55.1724H51.7246V51.7241Z" fill="white"/>
<path d="M51.7246 72.4138H48.2764V75.8621H51.7246V72.4138Z" fill="white"/>
<path d="M51.7246 75.8621H48.2764V79.3103H51.7246V75.8621Z" fill="white"/>
<path d="M51.7246 82.7585H48.2764V86.2068H51.7246V82.7585Z" fill="white"/>
<path d="M51.7246 96.5518H48.2764V100H51.7246V96.5518Z" fill="white"/>
<path d="M55.1719 0H51.7236V3.44828H55.1719V0Z" fill="white"/>
<path d="M55.1719 3.44824H51.7236V6.89652H55.1719V3.44824Z" fill="white"/>
<path d="M55.1719 24.1379H51.7236V27.5862H55.1719V24.1379Z" fill="white"/>
<path d="M55.1719 34.4828H51.7236V37.9311H55.1719V34.4828Z" fill="white"/>
<path d="M55.1719 41.3793H51.7236V44.8275H55.1719V41.3793Z" fill="white"/>
<path d="M55.1719 48.2759H51.7236V51.7242H55.1719V48.2759Z" fill="white"/>
<path d="M55.1719 58.6207H51.7236V62.069H55.1719V58.6207Z" fill="white"/>
<path d="M55.1719 62.069H51.7236V65.5172H55.1719V62.069Z" fill="white"/>
<path d="M55.1719 68.9655H51.7236V72.4137H55.1719V68.9655Z" fill="white"/>
<path d="M55.1719 72.4138H51.7236V75.8621H55.1719V72.4138Z" fill="white"/>
<path d="M55.1719 75.8621H51.7236V79.3103H55.1719V75.8621Z" fill="white"/>
<path d="M55.1719 79.3103H51.7236V82.7586H55.1719V79.3103Z" fill="white"/>
<path d="M55.1719 86.2069H51.7236V89.6552H55.1719V86.2069Z" fill="white"/>
<path d="M55.1719 93.1034H51.7236V96.5517H55.1719V93.1034Z" fill="white"/>
<path d="M55.1719 96.5518H51.7236V100H55.1719V96.5518Z" fill="white"/>
<path d="M58.6211 3.44824H55.1729V6.89652H58.6211V3.44824Z" fill="white"/>
<path d="M58.6211 10.3448H55.1729V13.7931H58.6211V10.3448Z" fill="white"/>
<path d="M58.6211 17.2413H55.1729V20.6896H58.6211V17.2413Z" fill="white"/>
<path d="M58.6211 20.6897H55.1729V24.138H58.6211V20.6897Z" fill="white"/>
<path d="M58.6211 24.1379H55.1729V27.5862H58.6211V24.1379Z" fill="white"/>
<path d="M58.6211 27.5862H55.1729V31.0345H58.6211V27.5862Z" fill="white"/>
<path d="M58.6211 31.0344H55.1729V34.4827H58.6211V31.0344Z" fill="white"/>
<path d="M58.6211 44.8275H55.1729V48.2758H58.6211V44.8275Z" fill="white"/>
<path d="M58.6211 48.2759H55.1729V51.7242H58.6211V48.2759Z" fill="white"/>
<path d="M58.6211 62.069H55.1729V65.5172H58.6211V62.069Z" fill="white"/>
<path d="M58.6211 72.4138H55.1729V75.8621H58.6211V72.4138Z" fill="white"/>
<path d="M58.6211 82.7585H55.1729V86.2068H58.6211V82.7585Z" fill="white"/>
<path d="M58.6211 93.1034H55.1729V96.5517H58.6211V93.1034Z" fill="white"/>
<path d="M62.0694 0H58.6211V3.44828H62.0694V0Z" fill="white"/>
<path d="M62.0694 17.2413H58.6211V20.6896H62.0694V17.2413Z" fill="white"/>
<path d="M62.0694 31.0344H58.6211V34.4827H62.0694V31.0344Z" fill="white"/>
<path d="M62.0694 37.931H58.6211V41.3793H62.0694V37.931Z" fill="white"/>
<path d="M62.0694 41.3793H58.6211V44.8275H62.0694V41.3793Z" fill="white"/>
<path d="M62.0694 44.8275H58.6211V48.2758H62.0694V44.8275Z" fill="white"/>
<path d="M62.0694 55.1724H58.6211V58.6206H62.0694V55.1724Z" fill="white"/>
<path d="M62.0694 58.6207H58.6211V62.069H62.0694V58.6207Z" fill="white"/>
<path d="M62.0694 62.069H58.6211V65.5172H62.0694V62.069Z" fill="white"/>
<path d="M62.0694 68.9655H58.6211V72.4137H62.0694V68.9655Z" fill="white"/>
<path d="M62.0694 75.8621H58.6211V79.3103H62.0694V75.8621Z" fill="white"/>
<path d="M62.0694 79.3103H58.6211V82.7586H62.0694V79.3103Z" fill="white"/>
<path d="M62.0694 82.7585H58.6211V86.2068H62.0694V82.7585Z" fill="white"/>
<path d="M62.0694 96.5518H58.6211V100H62.0694V96.5518Z" fill="white"/>
<path d="M65.5176 6.89661H62.0693V10.3449H65.5176V6.89661Z" fill="white"/>
<path d="M65.5176 10.3448H62.0693V13.7931H65.5176V10.3448Z" fill="white"/>
<path d="M65.5176 13.7931H62.0693V17.2414H65.5176V13.7931Z" fill="white"/>
<path d="M65.5176 17.2413H62.0693V20.6896H65.5176V17.2413Z" fill="white"/>
<path d="M65.5176 20.6897H62.0693V24.138H65.5176V20.6897Z" fill="white"/>
<path d="M65.5176 31.0344H62.0693V34.4827H65.5176V31.0344Z" fill="white"/>
<path d="M65.5176 37.931H62.0693V41.3793H65.5176V37.931Z" fill="white"/>
<path d="M65.5176 41.3793H62.0693V44.8275H65.5176V41.3793Z" fill="white"/>
<path d="M65.5176 48.2759H62.0693V51.7242H65.5176V48.2759Z" fill="white"/>
<path d="M65.5176 55.1724H62.0693V58.6206H65.5176V55.1724Z" fill="white"/>
<path d="M65.5176 62.069H62.0693V65.5172H65.5176V62.069Z" fill="white"/>
<path d="M65.5176 68.9655H62.0693V72.4137H65.5176V68.9655Z" fill="white"/>
<path d="M65.5176 82.7585H62.0693V86.2068H65.5176V82.7585Z" fill="white"/>
<path d="M65.5176 86.2069H62.0693V89.6552H65.5176V86.2069Z" fill="white"/>
<path d="M65.5176 89.6552H62.0693V93.1034H65.5176V89.6552Z" fill="white"/>
<path d="M65.5176 96.5518H62.0693V100H65.5176V96.5518Z" fill="white"/>
<path d="M68.9659 17.2413H65.5176V20.6896H68.9659V17.2413Z" fill="white"/>
<path d="M68.9659 27.5862H65.5176V31.0345H68.9659V27.5862Z" fill="white"/>
<path d="M68.9659 34.4828H65.5176V37.9311H68.9659V34.4828Z" fill="white"/>
<path d="M68.9659 41.3793H65.5176V44.8275H68.9659V41.3793Z" fill="white"/>
<path d="M68.9659 48.2759H65.5176V51.7242H68.9659V48.2759Z" fill="white"/>
<path d="M68.9659 58.6207H65.5176V62.069H68.9659V58.6207Z" fill="white"/>
<path d="M68.9659 65.5172H65.5176V68.9655H68.9659V65.5172Z" fill="white"/>
<path d="M68.9659 82.7585H65.5176V86.2068H68.9659V82.7585Z" fill="white"/>
<path d="M68.9659 86.2069H65.5176V89.6552H68.9659V86.2069Z" fill="white"/>
<path d="M68.9659 96.5518H65.5176V100H68.9659V96.5518Z" fill="white"/>
<path d="M72.4141 0H68.9658V3.44828H72.4141V0Z" fill="white"/>
<path d="M72.4141 3.44824H68.9658V6.89652H72.4141V3.44824Z" fill="white"/>
<path d="M72.4141 6.89661H68.9658V10.3449H72.4141V6.89661Z" fill="white"/>
<path d="M72.4141 10.3448H68.9658V13.7931H72.4141V10.3448Z" fill="white"/>
<path d="M72.4141 17.2413H68.9658V20.6896H72.4141V17.2413Z" fill="white"/>
<path d="M72.4141 20.6897H68.9658V24.138H72.4141V20.6897Z" fill="white"/>
<path d="M72.4141 24.1379H68.9658V27.5862H72.4141V24.1379Z" fill="white"/>
<path d="M72.4141 27.5862H68.9658V31.0345H72.4141V27.5862Z" fill="white"/>
<path d="M72.4141 51.7241H68.9658V55.1724H72.4141V51.7241Z" fill="white"/>
<path d="M72.4141 58.6207H68.9658V62.069H72.4141V58.6207Z" fill="white"/>
<path d="M72.4141 68.9655H68.9658V72.4137H72.4141V68.9655Z" fill="white"/>
<path d="M72.4141 72.4138H68.9658V75.8621H72.4141V72.4138Z" fill="white"/>
<path d="M72.4141 75.8621H68.9658V79.3103H72.4141V75.8621Z" fill="white"/>
<path d="M72.4141 79.3103H68.9658V82.7586H72.4141V79.3103Z" fill="white"/>
<path d="M72.4141 82.7585H68.9658V86.2068H72.4141V82.7585Z" fill="white"/>
<path d="M72.4141 93.1034H68.9658V96.5517H72.4141V93.1034Z" fill="white"/>
<path d="M72.4141 96.5518H68.9658V100H72.4141V96.5518Z" fill="white"/>
<path d="M75.8623 27.5862H72.4141V31.0345H75.8623V27.5862Z" fill="white"/>
<path d="M75.8623 31.0344H72.4141V34.4827H75.8623V31.0344Z" fill="white"/>
<path d="M75.8623 34.4828H72.4141V37.9311H75.8623V34.4828Z" fill="white"/>
<path d="M75.8623 37.931H72.4141V41.3793H75.8623V37.931Z" fill="white"/>
<path d="M75.8623 41.3793H72.4141V44.8275H75.8623V41.3793Z" fill="white"/>
<path d="M75.8623 51.7241H72.4141V55.1724H75.8623V51.7241Z" fill="white"/>
<path d="M75.8623 58.6207H72.4141V62.069H75.8623V58.6207Z" fill="white"/>
<path d="M75.8623 62.069H72.4141V65.5172H75.8623V62.069Z" fill="white"/>
<path d="M75.8623 65.5172H72.4141V68.9655H75.8623V65.5172Z" fill="white"/>
<path d="M75.8623 68.9655H72.4141V72.4137H75.8623V68.9655Z" fill="white"/>
<path d="M75.8623 82.7585H72.4141V86.2068H75.8623V82.7585Z" fill="white"/>
<path d="M75.8623 89.6552H72.4141V93.1034H75.8623V89.6552Z" fill="white"/>
<path d="M75.8623 93.1034H72.4141V96.5517H75.8623V93.1034Z" fill="white"/>
<path d="M75.8623 96.5518H72.4141V100H75.8623V96.5518Z" fill="white"/>
<path d="M79.3106 34.4828H75.8623V37.9311H79.3106V34.4828Z" fill="white"/>
<path d="M79.3106 44.8275H75.8623V48.2758H79.3106V44.8275Z" fill="white"/>
<path d="M79.3106 51.7241H75.8623V55.1724H79.3106V51.7241Z" fill="white"/>
<path d="M79.3106 62.069H75.8623V65.5172H79.3106V62.069Z" fill="white"/>
<path d="M79.3106 65.5172H75.8623V68.9655H79.3106V65.5172Z" fill="white"/>
<path d="M79.3106 68.9655H75.8623V72.4137H79.3106V68.9655Z" fill="white"/>
<path d="M79.3106 75.8621H75.8623V79.3103H79.3106V75.8621Z" fill="white"/>
<path d="M79.3106 82.7585H75.8623V86.2068H79.3106V82.7585Z" fill="white"/>
<path d="M79.3106 96.5518H75.8623V100H79.3106V96.5518Z" fill="white"/>
<path d="M82.7588 37.931H79.3105V41.3793H82.7588V37.931Z" fill="white"/>
<path d="M82.7588 41.3793H79.3105V44.8275H82.7588V41.3793Z" fill="white"/>
<path d="M82.7588 51.7241H79.3105V55.1724H82.7588V51.7241Z" fill="white"/>
<path d="M82.7588 65.5172H79.3105V68.9655H82.7588V65.5172Z" fill="white"/>
<path d="M82.7588 68.9655H79.3105V72.4137H82.7588V68.9655Z" fill="white"/>
<path d="M82.7588 82.7585H79.3105V86.2068H82.7588V82.7585Z" fill="white"/>
<path d="M82.7588 86.2069H79.3105V89.6552H82.7588V86.2069Z" fill="white"/>
<path d="M86.2071 27.5862H82.7588V31.0345H86.2071V27.5862Z" fill="white"/>
<path d="M86.2071 31.0344H82.7588V34.4827H86.2071V31.0344Z" fill="white"/>
<path d="M86.2071 34.4828H82.7588V37.9311H86.2071V34.4828Z" fill="white"/>
<path d="M86.2071 41.3793H82.7588V44.8275H86.2071V41.3793Z" fill="white"/>
<path d="M86.2071 44.8275H82.7588V48.2758H86.2071V44.8275Z" fill="white"/>
<path d="M86.2071 55.1724H82.7588V58.6206H86.2071V55.1724Z" fill="white"/>
<path d="M86.2071 65.5172H82.7588V68.9655H86.2071V65.5172Z" fill="white"/>
<path d="M86.2071 68.9655H82.7588V72.4137H86.2071V68.9655Z" fill="white"/>
<path d="M86.2071 72.4138H82.7588V75.8621H86.2071V72.4138Z" fill="white"/>
<path d="M86.2071 75.8621H82.7588V79.3103H86.2071V75.8621Z" fill="white"/>
<path d="M86.2071 79.3103H82.7588V82.7586H86.2071V79.3103Z" fill="white"/>
<path d="M86.2071 82.7585H82.7588V86.2068H86.2071V82.7585Z" fill="white"/>
<path d="M86.2071 93.1034H82.7588V96.5517H86.2071V93.1034Z" fill="white"/>
<path d="M86.2071 96.5518H82.7588V100H86.2071V96.5518Z" fill="white"/>
<path d="M89.6553 31.0344H86.207V34.4827H89.6553V31.0344Z" fill="white"/>
<path d="M89.6553 34.4828H86.207V37.9311H89.6553V34.4828Z" fill="white"/>
<path d="M89.6553 44.8275H86.207V48.2758H89.6553V44.8275Z" fill="white"/>
<path d="M89.6553 48.2759H86.207V51.7242H89.6553V48.2759Z" fill="white"/>
<path d="M89.6553 58.6207H86.207V62.069H89.6553V58.6207Z" fill="white"/>
<path d="M89.6553 62.069H86.207V65.5172H89.6553V62.069Z" fill="white"/>
<path d="M89.6553 79.3103H86.207V82.7586H89.6553V79.3103Z" fill="white"/>
<path d="M89.6553 86.2069H86.207V89.6552H89.6553V86.2069Z" fill="white"/>
<path d="M89.6553 89.6552H86.207V93.1034H89.6553V89.6552Z" fill="white"/>
<path d="M89.6553 93.1034H86.207V96.5517H89.6553V93.1034Z" fill="white"/>
<path d="M93.1035 34.4828H89.6553V37.9311H93.1035V34.4828Z" fill="white"/>
<path d="M93.1035 51.7241H89.6553V55.1724H93.1035V51.7241Z" fill="white"/>
<path d="M93.1035 58.6207H89.6553V62.069H93.1035V58.6207Z" fill="white"/>
<path d="M93.1035 62.069H89.6553V65.5172H93.1035V62.069Z" fill="white"/>
<path d="M93.1035 65.5172H89.6553V68.9655H93.1035V65.5172Z" fill="white"/>
<path d="M93.1035 68.9655H89.6553V72.4137H93.1035V68.9655Z" fill="white"/>
<path d="M93.1035 72.4138H89.6553V75.8621H93.1035V72.4138Z" fill="white"/>
<path d="M93.1035 93.1034H89.6553V96.5517H93.1035V93.1034Z" fill="white"/>
<path d="M93.1035 96.5518H89.6553V100H93.1035V96.5518Z" fill="white"/>
<path d="M96.5518 27.5862H93.1035V31.0345H96.5518V27.5862Z" fill="white"/>
<path d="M96.5518 31.0344H93.1035V34.4827H96.5518V31.0344Z" fill="white"/>
<path d="M96.5518 37.931H93.1035V41.3793H96.5518V37.931Z" fill="white"/>
<path d="M96.5518 44.8275H93.1035V48.2758H96.5518V44.8275Z" fill="white"/>
<path d="M96.5518 48.2759H93.1035V51.7242H96.5518V48.2759Z" fill="white"/>
<path d="M96.5518 51.7241H93.1035V55.1724H96.5518V51.7241Z" fill="white"/>
<path d="M96.5518 55.1724H93.1035V58.6206H96.5518V55.1724Z" fill="white"/>
<path d="M96.5518 58.6207H93.1035V62.069H96.5518V58.6207Z" fill="white"/>
<path d="M96.5518 62.069H93.1035V65.5172H96.5518V62.069Z" fill="white"/>
<path d="M96.5518 68.9655H93.1035V72.4137H96.5518V68.9655Z" fill="white"/>
<path d="M96.5518 79.3103H93.1035V82.7586H96.5518V79.3103Z" fill="white"/>
<path d="M96.5518 93.1034H93.1035V96.5517H96.5518V93.1034Z" fill="white"/>
<path d="M96.5518 96.5518H93.1035V100H96.5518V96.5518Z" fill="white"/>
<path d="M100 31.0344H96.5518V34.4827H100V31.0344Z" fill="white"/>
<path d="M100 34.4828H96.5518V37.9311H100V34.4828Z" fill="white"/>
<path d="M100 44.8275H96.5518V48.2758H100V44.8275Z" fill="white"/>
<path d="M100 58.6207H96.5518V62.069H100V58.6207Z" fill="white"/>
<path d="M100 68.9655H96.5518V72.4137H100V68.9655Z" fill="white"/>
<path d="M100 82.7585H96.5518V86.2068H100V82.7585Z" fill="white"/>
<path d="M100 86.2069H96.5518V89.6552H100V86.2069Z" fill="white"/>
<path d="M100 93.1034H96.5518V96.5517H100V93.1034Z" fill="white"/>
</mask>
<g mask="url(#mask0_31_2)">
<path d="M103.879 -3.87927H-3.87988V103.879H103.879V-3.87927Z" fill="black"/>
</g>
<mask id="mask1_31_2" style="mask-type:luminance" maskUnits="userSpaceOnUse" x="0" y="0" width="25" height="25">
<path fill-rule="evenodd" clip-rule="evenodd" d="M0 0V24.1379H24.1379V0H0ZM3.44828 3.44828H20.6897V20.6897H3.44828V3.44828Z" fill="white"/>
</mask>
<g mask="url(#mask1_31_2)">
<path d="M24.1379 0H0V24.1379H24.1379V0Z" fill="black"/>
</g>
<mask id="mask2_31_2" style="mask-type:luminance" maskUnits="userSpaceOnUse" x="6" y="6" width="12" height="12">
<path d="M17.2413 6.89648H6.89648V17.2413H17.2413V6.89648Z" fill="white"/>
</mask>
<g mask="url(#mask2_31_2)">
<path d="M17.2413 6.89648H6.89648V17.2413H17.2413V6.89648Z" fill="black"/>
</g>
<mask id="mask3_31_2" style="mask-type:luminance" maskUnits="userSpaceOnUse" x="75" y="0" width="25" height="25">
<path fill-rule="evenodd" clip-rule="evenodd" d="M100 0L75.8621 0V24.1379H100V0ZM96.5517 3.44828V20.6897H79.3103V3.44828L96.5517 3.44828Z" fill="white"/>
</mask>
<g mask="url(#mask3_31_2)">
<path d="M100 0H75.8623V24.1379H100V0Z" fill="black"/>
</g>
<mask id="mask4_31_2" style="mask-type:luminance" maskUnits="userSpaceOnUse" x="82" y="6" width="12" height="12">
<path d="M93.1035 17.2413V6.89648L82.7587 6.89648V17.2413H93.1035Z" fill="white"/>
</mask>
<g mask="url(#mask4_31_2)">
<path d="M93.1036 6.89648H82.7588V17.2413H93.1036V6.89648Z" fill="black"/>
</g>
<mask id="mask5_31_2" style="mask-type:luminance" maskUnits="userSpaceOnUse" x="0" y="75" width="25" height="25">
<path fill-rule="evenodd" clip-rule="evenodd" d="M0 100H24.1379V75.8621H0L0 100ZM3.44828 96.5517L3.44828 79.3103H20.6897V96.5517H3.44828Z" fill="white"/>
</mask>
<g mask="url(#mask5_31_2)">
<path d="M24.1379 75.8621H0V100H24.1379V75.8621Z" fill="black"/>
</g>
<mask id="mask6_31_2" style="mask-type:luminance" maskUnits="userSpaceOnUse" x="6" y="82" width="12" height="12">
<path d="M6.89648 82.7586L6.89648 93.1034H17.2413V82.7586H6.89648Z" fill="white"/>
</mask>
<g mask="url(#mask6_31_2)">
<path d="M17.2413 82.7585H6.89648V93.1034H17.2413V82.7585Z" fill="black"/>
</g>
</svg>
