<svg width="415" height="100" viewBox="0 0 415 100" fill="none" xmlns="http://www.w3.org/2000/svg">
<g clip-path="url(#clip0_16_732)">
<g filter="url(#filter0_d_16_732)">
<path d="M332.332 55.4396V63.9318H330.161V55.631C330.161 54.8591 330.582 54.1096 331.424 53.3882L331.143 53.1121L329.835 54.1998L327.517 52.2387L328.747 51.0271L330.076 52.1768L331.407 51.1624L333.663 53.3263C332.776 53.9519 332.332 54.6563 332.332 55.4396Z" fill="white"/>
</g>
<g filter="url(#filter1_d_16_732)">
<path d="M343.17 59.7675C343.17 61.0184 342.732 62.0554 341.863 62.8781C341.004 63.6783 339.894 64.0783 338.529 64.0783C337.165 64.0783 336.025 63.6783 335.173 62.8781C334.314 62.0722 333.887 61.0354 333.887 59.7675C333.887 59.6716 333.887 59.5759 333.899 59.4744C333.904 59.3731 333.915 59.266 333.932 59.1476H338.4V60.8156H336.295C336.677 61.7172 337.423 62.1681 338.529 62.1681C338.893 62.1681 339.23 62.1117 339.533 61.9933C339.836 61.8806 340.095 61.7116 340.308 61.4975C340.521 61.2833 340.69 61.0298 340.802 60.7423C340.92 60.4493 340.976 60.1282 340.976 59.7675C340.976 59.4067 340.92 59.1026 340.802 58.8151C340.684 58.5221 340.521 58.2742 340.308 58.0656C340.095 57.8571 339.836 57.6937 339.533 57.5754C339.23 57.4627 338.893 57.4006 338.518 57.4006C337.519 57.4006 336.811 57.7782 336.39 58.5277H334.05C334.786 56.4821 336.272 55.4622 338.518 55.4622C339.887 55.4622 340.999 55.8622 341.852 56.6681C342.283 57.0738 342.61 57.536 342.828 58.0431C343.047 58.5559 343.159 59.1306 343.159 59.7675H343.17Z" fill="white"/>
</g>
<g filter="url(#filter2_d_16_732)">
<path d="M350.243 63.9376V58.342C350.243 57.9982 350.08 57.7164 349.76 57.4966C349.44 57.2769 349.007 57.1698 348.468 57.1698C347.93 57.1698 347.509 57.2769 347.189 57.4966C346.869 57.7108 346.706 57.9926 346.706 58.342V59.035H349.136V60.7031H346.706V63.9433H344.535V58.4659C344.535 58.0264 344.625 57.6319 344.81 57.2769C344.995 56.9275 345.269 56.6063 345.634 56.3188C346.403 55.7498 347.347 55.468 348.464 55.468C349.58 55.468 350.534 55.7498 351.281 56.3188C352.028 56.8881 352.403 57.6037 352.403 58.4603V63.9376H350.231H350.243Z" fill="white"/>
</g>
<g filter="url(#filter3_d_16_732)">
<path d="M363.024 59.7675C363.024 61.0184 362.586 62.0554 361.715 62.8781C360.856 63.6783 359.746 64.0783 358.382 64.0783C357.017 64.0783 355.884 63.6783 355.025 62.8781C354.166 62.0722 353.739 61.0354 353.739 59.7675C353.739 59.6716 353.739 59.5759 353.751 59.4744C353.756 59.3731 353.769 59.266 353.784 59.1476H358.252V60.8156H356.148C356.53 61.7172 357.277 62.1681 358.382 62.1681C358.746 62.1681 359.083 62.1117 359.385 61.9933C359.69 61.8806 359.947 61.7116 360.16 61.4975C360.375 61.2833 360.542 61.0298 360.654 60.7423C360.767 60.4493 360.828 60.1282 360.828 59.7675C360.828 59.4067 360.772 59.1026 360.654 58.8151C360.536 58.5221 360.375 58.2742 360.166 58.0656C359.954 57.8571 359.694 57.6937 359.398 57.5754C359.095 57.4627 358.758 57.4006 358.382 57.4006C357.382 57.4006 356.676 57.7782 356.255 58.5277H353.915C354.649 56.4821 356.137 55.4622 358.382 55.4622C359.75 55.4622 360.862 55.8622 361.715 56.6681C362.148 57.0738 362.472 57.536 362.691 58.0431C362.91 58.5559 363.024 59.1306 363.024 59.7675Z" fill="white"/>
</g>
<g filter="url(#filter4_d_16_732)">
<path d="M369.898 63.9375V62.9007C369.254 63.684 368.35 64.0784 367.199 64.0784C366.452 64.0784 365.813 63.8586 365.28 63.4191C364.977 63.1824 364.752 62.9007 364.612 62.5681C364.466 62.2357 364.398 61.8695 364.398 61.4636V55.62H366.57V61.2157C366.57 61.3847 366.605 61.5425 366.678 61.6891C366.751 61.8356 366.845 61.9596 366.974 62.0723C367.098 62.1793 367.255 62.2639 367.435 62.3258C367.614 62.3879 367.811 62.4159 368.03 62.4159C368.473 62.4159 368.894 62.2695 369.293 61.9764C369.703 61.6947 369.911 61.3623 369.911 60.979V55.6143H372.082V63.9375H369.911H369.898Z" fill="white"/>
</g>
<g filter="url(#filter5_d_16_732)">
<path d="M384.525 58.1164C384.491 57.9867 384.418 57.8627 384.312 57.75C384.205 57.6373 384.07 57.536 383.913 57.4458C383.756 57.3556 383.576 57.288 383.38 57.2428C383.183 57.1978 382.977 57.1697 382.758 57.1697C382.539 57.1697 382.341 57.1922 382.157 57.2372C381.972 57.2823 381.813 57.3387 381.68 57.412C381.545 57.4853 381.444 57.5698 381.365 57.6655C381.292 57.7614 381.253 57.8627 381.253 57.9642C381.253 58.2966 381.886 58.5333 383.151 58.6743C383.683 58.7306 384.149 58.8038 384.542 58.9053C384.935 59.0011 385.261 59.1194 385.512 59.2547C386.27 59.6548 386.646 60.2689 386.646 61.1031C386.646 62.0103 386.249 62.7484 385.452 63.3176C384.739 63.8248 383.835 64.0783 382.73 64.0783C381.624 64.0783 380.731 63.8248 380.007 63.3176C379.237 62.7484 378.84 61.9765 378.816 61.0016H380.933C381.006 61.892 381.629 62.3315 382.814 62.3315C383.026 62.3315 383.239 62.3033 383.442 62.2526C383.644 62.2019 383.818 62.1343 383.969 62.0442C384.121 61.9539 384.244 61.8525 384.334 61.7286C384.43 61.6045 384.475 61.4749 384.475 61.3341C384.475 60.855 383.908 60.5621 382.769 60.4606C380.293 60.2014 379.052 59.452 379.052 58.2178C379.052 57.4176 379.424 56.7583 380.164 56.2342C380.512 55.975 380.894 55.7833 381.32 55.6538C381.747 55.5242 382.206 55.4622 382.702 55.4622C384.98 55.4622 386.311 56.347 386.686 58.1164H384.514H384.525Z" fill="white"/>
</g>
<g filter="url(#filter6_d_16_732)">
<path d="M385.45 67.3298C385.221 67.4425 384.963 67.5326 384.682 67.5945C384.396 67.6566 384.082 67.6848 383.739 67.6848C382.689 67.6848 381.893 67.4199 381.343 66.8902V66.0167H380.663V64.7656H383.224V66.1971C383.38 66.2647 383.526 66.2984 383.666 66.2984C383.964 66.2984 384.11 66.1914 384.11 65.9716V64.76H386.281V66.2139C386.281 66.6872 386.006 67.0593 385.463 67.3184L385.45 67.3298Z" fill="white"/>
</g>
<g filter="url(#filter7_d_16_732)">
<path d="M396.48 63.9375H394.982L393.063 58.6969L391.165 63.9375H389.655L387.163 55.6143H389.211L390.581 60.6015L392.416 55.6143H393.724L395.605 60.6015L397.462 54.0703H399.415L396.491 63.9375H396.48Z" fill="white"/>
</g>
<g filter="url(#filter8_d_16_732)">
<path d="M234.083 78.8144C233.146 80.7135 231.916 82.3307 230.39 83.6721C228.863 85.0132 227.067 86.0444 224.997 86.7544C222.925 87.4645 220.658 87.8195 218.193 87.8195C212.206 87.8195 207.39 85.8696 203.753 81.9701C200.256 78.3635 198.504 73.6977 198.504 67.9779C198.504 62.2583 200.284 57.3724 203.837 53.5518C207.333 49.7818 212.122 47.8997 218.193 47.8997C220.489 47.8997 222.588 48.1928 224.492 48.7901C226.394 49.3818 228.144 50.2722 229.739 51.4556C231.418 52.7178 232.736 54.2168 233.685 55.9412C234.639 57.6655 235.24 59.5984 235.493 61.7341H227.051C226.91 60.7593 226.585 59.8521 226.063 59.0067C225.546 58.1615 224.885 57.4457 224.087 56.854C223.29 56.2623 222.386 55.7946 221.382 55.451C220.377 55.1072 219.31 54.9382 218.189 54.9382C216.341 54.9382 214.726 55.2762 213.339 55.9468C211.952 56.6173 210.757 57.6261 209.747 58.9729C208.934 60.1562 208.322 61.5032 207.901 63.0021C207.479 64.5067 207.272 66.1634 207.272 67.9835C207.272 69.8038 207.479 71.3985 207.901 72.8467C208.322 74.295 208.934 75.6137 209.747 76.7971C211.733 79.4344 214.546 80.7473 218.189 80.7473C223.565 80.7473 226.63 77.9691 227.382 72.4072H235.823C235.598 74.7796 235.014 76.9154 234.078 78.8088L234.083 78.8144Z" fill="white"/>
</g>
<g filter="url(#filter9_d_16_732)">
<path d="M281.213 67.9835C281.213 73.6751 279.489 78.3411 276.05 81.9757C274.203 83.9256 272.08 85.3851 269.691 86.36C267.299 87.3349 264.571 87.8195 261.524 87.8195C255.534 87.8195 250.719 85.8696 247.076 81.9701C243.574 78.3635 241.829 73.6977 241.829 67.9779C241.829 62.2583 243.608 57.3724 247.161 53.5518C250.657 49.7818 255.444 47.8997 261.518 47.8997C264.566 47.8997 267.293 48.3788 269.684 49.3423C272.076 50.306 274.197 51.7373 276.043 53.6307C279.485 57.3444 281.207 62.1285 281.207 67.9779L281.213 67.9835ZM272.434 67.9835C272.434 64.3771 271.61 61.3735 269.959 58.9729C268.978 57.6317 267.787 56.623 266.389 55.9468C264.991 55.2762 263.37 54.9382 261.518 54.9382C259.665 54.9382 258.055 55.2762 256.668 55.9468C255.283 56.6173 254.087 57.6261 253.076 58.9729C252.262 60.1562 251.651 61.5032 251.23 63.0021C250.809 64.5067 250.601 66.1634 250.601 67.9835C250.601 69.8038 250.809 71.3985 251.23 72.8467C251.651 74.295 252.262 75.6137 253.076 76.7971C255.064 79.4344 257.875 80.7473 261.518 80.7473C265.161 80.7473 268.023 79.4287 269.959 76.7971C271.61 74.4528 272.434 71.5168 272.434 67.9835Z" fill="white"/>
</g>
<g filter="url(#filter10_d_16_732)">
<path d="M313.879 86.918L297.209 61.3456H297.125V86.918H288.852V48.7791L298.792 48.8692L314.384 74.4698H314.468V48.7847H322.742V86.9237H313.879V86.918Z" fill="white"/>
</g>
<g filter="url(#filter11_d_16_732)">
<path d="M341.605 85.5372C341.398 85.0806 341.252 84.4495 341.179 83.6381L340.954 81.5135C340.881 81.0628 340.774 80.6739 340.628 80.3471C340.488 80.026 340.297 79.7611 340.067 79.5582C339.831 79.3554 339.55 79.2032 339.215 79.1129C338.882 79.0228 338.485 78.9721 338.03 78.9721H334.09V85.5428H330.222V68.7329H339.696C340.499 68.7329 341.224 68.8512 341.869 69.0879C342.519 69.3246 343.064 69.6572 343.519 70.0741C343.968 70.4911 344.316 70.9871 344.563 71.5506C344.81 72.1196 344.934 72.7283 344.934 73.3821C344.934 75.4613 343.996 76.8589 342.122 77.5802V77.614C343.698 77.9746 344.574 79.2877 344.748 81.553L344.861 83.5761C344.922 84.055 344.995 84.4495 345.085 84.7707C345.168 85.0919 345.282 85.3512 345.415 85.5484H341.605V85.5372ZM341.066 73.9343C341.066 72.3677 340.168 71.5844 338.367 71.5844H334.09V76.3405H338.367C340.168 76.3405 341.066 75.5402 341.066 73.9343Z" fill="white"/>
</g>
<g filter="url(#filter12_d_16_732)">
<path d="M365.403 77.1915C365.403 79.6992 364.645 81.756 363.129 83.3564C362.316 84.213 361.378 84.861 360.323 85.2893C359.267 85.7176 358.067 85.9318 356.725 85.9318C354.087 85.9318 351.966 85.0696 350.361 83.3508C348.818 81.7616 348.048 79.7048 348.048 77.1859C348.048 74.667 348.833 72.5143 350.4 70.8293C351.944 69.167 354.054 68.3386 356.731 68.3386C358.073 68.3386 359.273 68.5527 360.329 68.9754C361.384 69.3981 362.316 70.0292 363.135 70.8688C364.651 72.503 365.409 74.6107 365.409 77.1915H365.403ZM361.536 77.1915C361.536 75.6024 361.171 74.2781 360.441 73.2187C360.01 72.627 359.486 72.1819 358.87 71.8888C358.252 71.5902 357.539 71.4436 356.725 71.4436C355.911 71.4436 355.199 71.5902 354.587 71.8888C353.975 72.1875 353.447 72.627 353.004 73.2187C352.646 73.7427 352.376 74.3346 352.191 74.9937C352.006 75.6531 351.916 76.3857 351.916 77.1859C351.916 77.986 352.006 78.6904 352.191 79.3273C352.376 79.9641 352.646 80.5445 353.004 81.0686C353.88 82.2293 355.121 82.8098 356.725 82.8098C358.331 82.8098 359.593 82.2293 360.447 81.0686C361.176 80.0316 361.541 78.7413 361.541 77.1859L361.536 77.1915Z" fill="white"/>
</g>
<g filter="url(#filter13_d_16_732)">
<path d="M385.366 77.1915C385.366 79.6992 384.609 81.756 383.088 83.3564C382.275 84.213 381.337 84.861 380.287 85.2893C379.233 85.7176 378.031 85.9318 376.69 85.9318C374.046 85.9318 371.925 85.0696 370.325 83.3508C368.782 81.7616 368.013 79.7048 368.013 77.1859C368.013 74.667 368.799 72.5143 370.364 70.8293C371.908 69.167 374.018 68.3386 376.695 68.3386C378.043 68.3386 379.239 68.5527 380.293 68.9754C381.349 69.3981 382.281 70.0292 383.095 70.8688C384.609 72.503 385.373 74.6107 385.373 77.1915H385.366ZM381.5 77.1915C381.5 75.6024 381.135 74.2781 380.405 73.2187C379.973 72.627 379.452 72.1819 378.833 71.8888C378.217 71.5902 377.504 71.4436 376.69 71.4436C375.877 71.4436 375.164 71.5902 374.552 71.8888C373.94 72.1875 373.412 72.627 372.968 73.2187C372.61 73.7427 372.341 74.3346 372.155 74.9937C371.97 75.6531 371.88 76.3857 371.88 77.1859C371.88 77.986 371.97 78.6904 372.155 79.3273C372.341 79.9641 372.61 80.5445 372.968 81.0686C373.844 82.2293 375.085 82.8098 376.69 82.8098C378.295 82.8098 379.559 82.2293 380.411 81.0686C381.141 80.0316 381.506 78.7413 381.506 77.1859L381.5 77.1915Z" fill="white"/>
</g>
<g filter="url(#filter14_d_16_732)">
<path d="M392.602 71.8438V75.7264H400.077V78.5835H392.602V85.5374H388.735V68.7275H401.133V71.8438H392.602Z" fill="white"/>
</g>
<g filter="url(#filter15_d_16_732)">
<path d="M191.893 83.148C191.893 85.6613 189.58 87.6956 186.735 87.6956C183.884 87.6956 181.577 85.6613 181.577 83.148V54.1041C181.577 51.5908 183.889 49.5566 186.735 49.5566C189.586 49.5566 191.893 51.5908 191.893 54.1041V83.148Z" fill="white"/>
</g>
<g filter="url(#filter16_d_16_732)">
<path d="M65.4963 63.453L96.1976 34.798L184.726 91.4318L96.1527 9.25928L38.9092 62.4274C47.8277 62.4274 56.6452 62.6527 65.4963 63.453Z" fill="white"/>
</g>
<g filter="url(#filter17_d_16_732)">
<path d="M65.4961 63.4531C56.645 62.6529 47.8275 62.4275 38.909 62.4275L12.9111 86.58C12.9111 86.58 26.1289 81.0631 48.9388 78.9106C72.394 76.6958 105.986 78.037 145.813 92.5928C116.566 72.7456 90.8823 65.7467 65.4961 63.4531Z" fill="white"/>
</g>
<g filter="url(#filter18_d_16_732)">
<path d="M192.281 39.4695C192.281 42.6534 189.709 45.2344 186.538 45.2344C183.367 45.2344 180.797 42.6534 180.797 39.4695C180.797 36.2857 183.367 33.7048 186.538 33.7048C189.709 33.7048 192.281 36.2857 192.281 39.4695Z" fill="white"/>
</g>
</g>
<defs>
<filter id="filter0_d_16_732" x="319.517" y="45.0271" width="22.1462" height="28.9048" filterUnits="userSpaceOnUse" color-interpolation-filters="sRGB">
<feFlood flood-opacity="0" result="BackgroundImageFix"/>
<feColorMatrix in="SourceAlpha" type="matrix" values="0 0 0 0 0 0 0 0 0 0 0 0 0 0 0 0 0 0 127 0" result="hardAlpha"/>
<feOffset dy="2"/>
<feGaussianBlur stdDeviation="4"/>
<feComposite in2="hardAlpha" operator="out"/>
<feColorMatrix type="matrix" values="0 0 0 0 0 0 0 0 0 0 0 0 0 0 0 0 0 0 0.25 0"/>
<feBlend mode="normal" in2="BackgroundImageFix" result="effect1_dropShadow_16_732"/>
<feBlend mode="normal" in="SourceGraphic" in2="effect1_dropShadow_16_732" result="shape"/>
</filter>
<filter id="filter1_d_16_732" x="325.887" y="49.4622" width="25.2832" height="24.6162" filterUnits="userSpaceOnUse" color-interpolation-filters="sRGB">
<feFlood flood-opacity="0" result="BackgroundImageFix"/>
<feColorMatrix in="SourceAlpha" type="matrix" values="0 0 0 0 0 0 0 0 0 0 0 0 0 0 0 0 0 0 127 0" result="hardAlpha"/>
<feOffset dy="2"/>
<feGaussianBlur stdDeviation="4"/>
<feComposite in2="hardAlpha" operator="out"/>
<feColorMatrix type="matrix" values="0 0 0 0 0 0 0 0 0 0 0 0 0 0 0 0 0 0 0.25 0"/>
<feBlend mode="normal" in2="BackgroundImageFix" result="effect1_dropShadow_16_732"/>
<feBlend mode="normal" in="SourceGraphic" in2="effect1_dropShadow_16_732" result="shape"/>
</filter>
<filter id="filter2_d_16_732" x="336.535" y="49.468" width="23.8684" height="24.4753" filterUnits="userSpaceOnUse" color-interpolation-filters="sRGB">
<feFlood flood-opacity="0" result="BackgroundImageFix"/>
<feColorMatrix in="SourceAlpha" type="matrix" values="0 0 0 0 0 0 0 0 0 0 0 0 0 0 0 0 0 0 127 0" result="hardAlpha"/>
<feOffset dy="2"/>
<feGaussianBlur stdDeviation="4"/>
<feComposite in2="hardAlpha" operator="out"/>
<feColorMatrix type="matrix" values="0 0 0 0 0 0 0 0 0 0 0 0 0 0 0 0 0 0 0.25 0"/>
<feBlend mode="normal" in2="BackgroundImageFix" result="effect1_dropShadow_16_732"/>
<feBlend mode="normal" in="SourceGraphic" in2="effect1_dropShadow_16_732" result="shape"/>
</filter>
<filter id="filter3_d_16_732" x="345.739" y="49.4622" width="25.2847" height="24.6162" filterUnits="userSpaceOnUse" color-interpolation-filters="sRGB">
<feFlood flood-opacity="0" result="BackgroundImageFix"/>
<feColorMatrix in="SourceAlpha" type="matrix" values="0 0 0 0 0 0 0 0 0 0 0 0 0 0 0 0 0 0 127 0" result="hardAlpha"/>
<feOffset dy="2"/>
<feGaussianBlur stdDeviation="4"/>
<feComposite in2="hardAlpha" operator="out"/>
<feColorMatrix type="matrix" values="0 0 0 0 0 0 0 0 0 0 0 0 0 0 0 0 0 0 0.25 0"/>
<feBlend mode="normal" in2="BackgroundImageFix" result="effect1_dropShadow_16_732"/>
<feBlend mode="normal" in="SourceGraphic" in2="effect1_dropShadow_16_732" result="shape"/>
</filter>
<filter id="filter4_d_16_732" x="356.398" y="49.6143" width="23.6836" height="24.4641" filterUnits="userSpaceOnUse" color-interpolation-filters="sRGB">
<feFlood flood-opacity="0" result="BackgroundImageFix"/>
<feColorMatrix in="SourceAlpha" type="matrix" values="0 0 0 0 0 0 0 0 0 0 0 0 0 0 0 0 0 0 127 0" result="hardAlpha"/>
<feOffset dy="2"/>
<feGaussianBlur stdDeviation="4"/>
<feComposite in2="hardAlpha" operator="out"/>
<feColorMatrix type="matrix" values="0 0 0 0 0 0 0 0 0 0 0 0 0 0 0 0 0 0 0.25 0"/>
<feBlend mode="normal" in2="BackgroundImageFix" result="effect1_dropShadow_16_732"/>
<feBlend mode="normal" in="SourceGraphic" in2="effect1_dropShadow_16_732" result="shape"/>
</filter>
<filter id="filter5_d_16_732" x="370.816" y="49.4622" width="23.8701" height="24.6162" filterUnits="userSpaceOnUse" color-interpolation-filters="sRGB">
<feFlood flood-opacity="0" result="BackgroundImageFix"/>
<feColorMatrix in="SourceAlpha" type="matrix" values="0 0 0 0 0 0 0 0 0 0 0 0 0 0 0 0 0 0 127 0" result="hardAlpha"/>
<feOffset dy="2"/>
<feGaussianBlur stdDeviation="4"/>
<feComposite in2="hardAlpha" operator="out"/>
<feColorMatrix type="matrix" values="0 0 0 0 0 0 0 0 0 0 0 0 0 0 0 0 0 0 0.25 0"/>
<feBlend mode="normal" in2="BackgroundImageFix" result="effect1_dropShadow_16_732"/>
<feBlend mode="normal" in="SourceGraphic" in2="effect1_dropShadow_16_732" result="shape"/>
</filter>
<filter id="filter6_d_16_732" x="372.663" y="58.76" width="21.6184" height="18.9248" filterUnits="userSpaceOnUse" color-interpolation-filters="sRGB">
<feFlood flood-opacity="0" result="BackgroundImageFix"/>
<feColorMatrix in="SourceAlpha" type="matrix" values="0 0 0 0 0 0 0 0 0 0 0 0 0 0 0 0 0 0 127 0" result="hardAlpha"/>
<feOffset dy="2"/>
<feGaussianBlur stdDeviation="4"/>
<feComposite in2="hardAlpha" operator="out"/>
<feColorMatrix type="matrix" values="0 0 0 0 0 0 0 0 0 0 0 0 0 0 0 0 0 0 0.25 0"/>
<feBlend mode="normal" in2="BackgroundImageFix" result="effect1_dropShadow_16_732"/>
<feBlend mode="normal" in="SourceGraphic" in2="effect1_dropShadow_16_732" result="shape"/>
</filter>
<filter id="filter7_d_16_732" x="379.163" y="48.0703" width="28.2522" height="25.8672" filterUnits="userSpaceOnUse" color-interpolation-filters="sRGB">
<feFlood flood-opacity="0" result="BackgroundImageFix"/>
<feColorMatrix in="SourceAlpha" type="matrix" values="0 0 0 0 0 0 0 0 0 0 0 0 0 0 0 0 0 0 127 0" result="hardAlpha"/>
<feOffset dy="2"/>
<feGaussianBlur stdDeviation="4"/>
<feComposite in2="hardAlpha" operator="out"/>
<feColorMatrix type="matrix" values="0 0 0 0 0 0 0 0 0 0 0 0 0 0 0 0 0 0 0.25 0"/>
<feBlend mode="normal" in2="BackgroundImageFix" result="effect1_dropShadow_16_732"/>
<feBlend mode="normal" in="SourceGraphic" in2="effect1_dropShadow_16_732" result="shape"/>
</filter>
<filter id="filter8_d_16_732" x="190.504" y="41.8997" width="53.3191" height="55.9199" filterUnits="userSpaceOnUse" color-interpolation-filters="sRGB">
<feFlood flood-opacity="0" result="BackgroundImageFix"/>
<feColorMatrix in="SourceAlpha" type="matrix" values="0 0 0 0 0 0 0 0 0 0 0 0 0 0 0 0 0 0 127 0" result="hardAlpha"/>
<feOffset dy="2"/>
<feGaussianBlur stdDeviation="4"/>
<feComposite in2="hardAlpha" operator="out"/>
<feColorMatrix type="matrix" values="0 0 0 0 0 0 0 0 0 0 0 0 0 0 0 0 0 0 0.25 0"/>
<feBlend mode="normal" in2="BackgroundImageFix" result="effect1_dropShadow_16_732"/>
<feBlend mode="normal" in="SourceGraphic" in2="effect1_dropShadow_16_732" result="shape"/>
</filter>
<filter id="filter9_d_16_732" x="233.829" y="41.8997" width="55.3843" height="55.9199" filterUnits="userSpaceOnUse" color-interpolation-filters="sRGB">
<feFlood flood-opacity="0" result="BackgroundImageFix"/>
<feColorMatrix in="SourceAlpha" type="matrix" values="0 0 0 0 0 0 0 0 0 0 0 0 0 0 0 0 0 0 127 0" result="hardAlpha"/>
<feOffset dy="2"/>
<feGaussianBlur stdDeviation="4"/>
<feComposite in2="hardAlpha" operator="out"/>
<feColorMatrix type="matrix" values="0 0 0 0 0 0 0 0 0 0 0 0 0 0 0 0 0 0 0.25 0"/>
<feBlend mode="normal" in2="BackgroundImageFix" result="effect1_dropShadow_16_732"/>
<feBlend mode="normal" in="SourceGraphic" in2="effect1_dropShadow_16_732" result="shape"/>
</filter>
<filter id="filter10_d_16_732" x="280.852" y="42.7791" width="49.8901" height="54.1445" filterUnits="userSpaceOnUse" color-interpolation-filters="sRGB">
<feFlood flood-opacity="0" result="BackgroundImageFix"/>
<feColorMatrix in="SourceAlpha" type="matrix" values="0 0 0 0 0 0 0 0 0 0 0 0 0 0 0 0 0 0 127 0" result="hardAlpha"/>
<feOffset dy="2"/>
<feGaussianBlur stdDeviation="4"/>
<feComposite in2="hardAlpha" operator="out"/>
<feColorMatrix type="matrix" values="0 0 0 0 0 0 0 0 0 0 0 0 0 0 0 0 0 0 0.25 0"/>
<feBlend mode="normal" in2="BackgroundImageFix" result="effect1_dropShadow_16_732"/>
<feBlend mode="normal" in="SourceGraphic" in2="effect1_dropShadow_16_732" result="shape"/>
</filter>
<filter id="filter11_d_16_732" x="322.222" y="62.7329" width="31.1934" height="32.8154" filterUnits="userSpaceOnUse" color-interpolation-filters="sRGB">
<feFlood flood-opacity="0" result="BackgroundImageFix"/>
<feColorMatrix in="SourceAlpha" type="matrix" values="0 0 0 0 0 0 0 0 0 0 0 0 0 0 0 0 0 0 127 0" result="hardAlpha"/>
<feOffset dy="2"/>
<feGaussianBlur stdDeviation="4"/>
<feComposite in2="hardAlpha" operator="out"/>
<feColorMatrix type="matrix" values="0 0 0 0 0 0 0 0 0 0 0 0 0 0 0 0 0 0 0.25 0"/>
<feBlend mode="normal" in2="BackgroundImageFix" result="effect1_dropShadow_16_732"/>
<feBlend mode="normal" in="SourceGraphic" in2="effect1_dropShadow_16_732" result="shape"/>
</filter>
<filter id="filter12_d_16_732" x="340.048" y="62.3386" width="33.3613" height="33.5933" filterUnits="userSpaceOnUse" color-interpolation-filters="sRGB">
<feFlood flood-opacity="0" result="BackgroundImageFix"/>
<feColorMatrix in="SourceAlpha" type="matrix" values="0 0 0 0 0 0 0 0 0 0 0 0 0 0 0 0 0 0 127 0" result="hardAlpha"/>
<feOffset dy="2"/>
<feGaussianBlur stdDeviation="4"/>
<feComposite in2="hardAlpha" operator="out"/>
<feColorMatrix type="matrix" values="0 0 0 0 0 0 0 0 0 0 0 0 0 0 0 0 0 0 0.25 0"/>
<feBlend mode="normal" in2="BackgroundImageFix" result="effect1_dropShadow_16_732"/>
<feBlend mode="normal" in="SourceGraphic" in2="effect1_dropShadow_16_732" result="shape"/>
</filter>
<filter id="filter13_d_16_732" x="360.013" y="62.3386" width="33.3596" height="33.5933" filterUnits="userSpaceOnUse" color-interpolation-filters="sRGB">
<feFlood flood-opacity="0" result="BackgroundImageFix"/>
<feColorMatrix in="SourceAlpha" type="matrix" values="0 0 0 0 0 0 0 0 0 0 0 0 0 0 0 0 0 0 127 0" result="hardAlpha"/>
<feOffset dy="2"/>
<feGaussianBlur stdDeviation="4"/>
<feComposite in2="hardAlpha" operator="out"/>
<feColorMatrix type="matrix" values="0 0 0 0 0 0 0 0 0 0 0 0 0 0 0 0 0 0 0.25 0"/>
<feBlend mode="normal" in2="BackgroundImageFix" result="effect1_dropShadow_16_732"/>
<feBlend mode="normal" in="SourceGraphic" in2="effect1_dropShadow_16_732" result="shape"/>
</filter>
<filter id="filter14_d_16_732" x="380.735" y="62.7275" width="28.3982" height="32.8098" filterUnits="userSpaceOnUse" color-interpolation-filters="sRGB">
<feFlood flood-opacity="0" result="BackgroundImageFix"/>
<feColorMatrix in="SourceAlpha" type="matrix" values="0 0 0 0 0 0 0 0 0 0 0 0 0 0 0 0 0 0 127 0" result="hardAlpha"/>
<feOffset dy="2"/>
<feGaussianBlur stdDeviation="4"/>
<feComposite in2="hardAlpha" operator="out"/>
<feColorMatrix type="matrix" values="0 0 0 0 0 0 0 0 0 0 0 0 0 0 0 0 0 0 0.25 0"/>
<feBlend mode="normal" in2="BackgroundImageFix" result="effect1_dropShadow_16_732"/>
<feBlend mode="normal" in="SourceGraphic" in2="effect1_dropShadow_16_732" result="shape"/>
</filter>
<filter id="filter15_d_16_732" x="173.577" y="43.5566" width="26.3159" height="54.1389" filterUnits="userSpaceOnUse" color-interpolation-filters="sRGB">
<feFlood flood-opacity="0" result="BackgroundImageFix"/>
<feColorMatrix in="SourceAlpha" type="matrix" values="0 0 0 0 0 0 0 0 0 0 0 0 0 0 0 0 0 0 127 0" result="hardAlpha"/>
<feOffset dy="2"/>
<feGaussianBlur stdDeviation="4"/>
<feComposite in2="hardAlpha" operator="out"/>
<feColorMatrix type="matrix" values="0 0 0 0 0 0 0 0 0 0 0 0 0 0 0 0 0 0 0.25 0"/>
<feBlend mode="normal" in2="BackgroundImageFix" result="effect1_dropShadow_16_732"/>
<feBlend mode="normal" in="SourceGraphic" in2="effect1_dropShadow_16_732" result="shape"/>
</filter>
<filter id="filter16_d_16_732" x="30.9092" y="3.25928" width="161.817" height="98.1726" filterUnits="userSpaceOnUse" color-interpolation-filters="sRGB">
<feFlood flood-opacity="0" result="BackgroundImageFix"/>
<feColorMatrix in="SourceAlpha" type="matrix" values="0 0 0 0 0 0 0 0 0 0 0 0 0 0 0 0 0 0 127 0" result="hardAlpha"/>
<feOffset dy="2"/>
<feGaussianBlur stdDeviation="4"/>
<feComposite in2="hardAlpha" operator="out"/>
<feColorMatrix type="matrix" values="0 0 0 0 0 0 0 0 0 0 0 0 0 0 0 0 0 0 0.25 0"/>
<feBlend mode="normal" in2="BackgroundImageFix" result="effect1_dropShadow_16_732"/>
<feBlend mode="normal" in="SourceGraphic" in2="effect1_dropShadow_16_732" result="shape"/>
</filter>
<filter id="filter17_d_16_732" x="4.91113" y="56.4275" width="148.902" height="46.1653" filterUnits="userSpaceOnUse" color-interpolation-filters="sRGB">
<feFlood flood-opacity="0" result="BackgroundImageFix"/>
<feColorMatrix in="SourceAlpha" type="matrix" values="0 0 0 0 0 0 0 0 0 0 0 0 0 0 0 0 0 0 127 0" result="hardAlpha"/>
<feOffset dy="2"/>
<feGaussianBlur stdDeviation="4"/>
<feComposite in2="hardAlpha" operator="out"/>
<feColorMatrix type="matrix" values="0 0 0 0 0 0 0 0 0 0 0 0 0 0 0 0 0 0 0.25 0"/>
<feBlend mode="normal" in2="BackgroundImageFix" result="effect1_dropShadow_16_732"/>
<feBlend mode="normal" in="SourceGraphic" in2="effect1_dropShadow_16_732" result="shape"/>
</filter>
<filter id="filter18_d_16_732" x="172.797" y="27.7048" width="27.4836" height="27.5295" filterUnits="userSpaceOnUse" color-interpolation-filters="sRGB">
<feFlood flood-opacity="0" result="BackgroundImageFix"/>
<feColorMatrix in="SourceAlpha" type="matrix" values="0 0 0 0 0 0 0 0 0 0 0 0 0 0 0 0 0 0 127 0" result="hardAlpha"/>
<feOffset dy="2"/>
<feGaussianBlur stdDeviation="4"/>
<feComposite in2="hardAlpha" operator="out"/>
<feColorMatrix type="matrix" values="0 0 0 0 0 0 0 0 0 0 0 0 0 0 0 0 0 0 0.25 0"/>
<feBlend mode="normal" in2="BackgroundImageFix" result="effect1_dropShadow_16_732"/>
<feBlend mode="normal" in="SourceGraphic" in2="effect1_dropShadow_16_732" result="shape"/>
</filter>
<clipPath id="clip0_16_732">
<rect width="415" height="100" fill="white"/>
</clipPath>
</defs>
</svg>
