<svg width="250" height="54" viewBox="0 0 250 54" fill="none" xmlns="http://www.w3.org/2000/svg">
<g clip-path="url(#clip0_11_87)">
<path d="M205.695 29.6195V35.0663H204.297V29.7424C204.297 29.2472 204.568 28.7665 205.11 28.3039L204.929 28.1268L204.087 28.8243L202.594 27.5665L203.386 26.7895L204.242 27.5268L205.099 26.8762L206.552 28.2641C205.981 28.6653 205.695 29.1171 205.695 29.6195Z" fill="#FAFAFA"/>
<path d="M212.675 32.3953C212.675 33.1977 212.393 33.8627 211.833 34.3904C211.28 34.9036 210.564 35.1603 209.686 35.1603C208.807 35.1603 208.074 34.9036 207.524 34.3904C206.971 33.8736 206.697 33.2085 206.697 32.3953C206.697 32.3339 206.697 32.2724 206.704 32.2073C206.708 32.1423 206.715 32.0736 206.726 31.9977H209.603V33.0676H208.247C208.493 33.6459 208.974 33.935 209.686 33.935C209.921 33.935 210.138 33.8989 210.333 33.823C210.528 33.7507 210.694 33.6422 210.831 33.5049C210.969 33.3676 211.077 33.2049 211.15 33.0206C211.225 32.8326 211.262 32.6266 211.262 32.3953C211.262 32.164 211.225 31.9688 211.15 31.7845C211.074 31.5965 210.969 31.4375 210.831 31.3038C210.694 31.17 210.528 31.0652 210.333 30.9893C210.138 30.917 209.921 30.8773 209.678 30.8773C209.035 30.8773 208.58 31.1194 208.309 31.6001H206.801C207.275 30.2881 208.233 29.6339 209.678 29.6339C210.56 29.6339 211.276 29.8906 211.825 30.4074C212.104 30.6676 212.313 30.964 212.454 31.2893C212.595 31.6182 212.668 31.9869 212.668 32.3953H212.675Z" fill="#FAFAFA"/>
<path d="M217.229 35.0699V31.4809C217.229 31.2604 217.124 31.0797 216.918 30.9387C216.712 30.7977 216.434 30.7291 216.087 30.7291C215.74 30.7291 215.469 30.7977 215.263 30.9387C215.057 31.076 214.952 31.2568 214.952 31.4809V31.9254H216.517V32.9953H214.952V35.0735H213.553V31.5604C213.553 31.2785 213.611 31.0254 213.73 30.7977C213.849 30.5737 214.026 30.3676 214.261 30.1833C214.757 29.8183 215.364 29.6375 216.083 29.6375C216.802 29.6375 217.417 29.8183 217.897 30.1833C218.378 30.5484 218.62 31.0074 218.62 31.5568V35.0699H217.222H217.229Z" fill="#FAFAFA"/>
<path d="M225.459 32.3953C225.459 33.1977 225.177 33.8627 224.617 34.3904C224.064 34.9036 223.348 35.1603 222.47 35.1603C221.591 35.1603 220.861 34.9036 220.308 34.3904C219.755 33.8736 219.481 33.2085 219.481 32.3953C219.481 32.3339 219.481 32.2724 219.488 32.2073C219.491 32.1423 219.499 32.0736 219.51 31.9977H222.387V33.0676H221.031C221.277 33.6459 221.758 33.935 222.47 33.935C222.705 33.935 222.921 33.8989 223.117 33.823C223.312 33.7507 223.478 33.6422 223.615 33.5049C223.753 33.3676 223.861 33.2049 223.933 33.0206C224.006 32.8326 224.045 32.6266 224.045 32.3953C224.045 32.164 224.009 31.9688 223.933 31.7845C223.858 31.5965 223.753 31.4375 223.619 31.3038C223.482 31.17 223.315 31.0652 223.124 30.9893C222.929 30.917 222.712 30.8773 222.47 30.8773C221.826 30.8773 221.371 31.1194 221.1 31.6001H219.593C220.066 30.2881 221.024 29.6339 222.47 29.6339C223.352 29.6339 224.067 29.8906 224.617 30.4074C224.895 30.6676 225.105 30.964 225.245 31.2893C225.386 31.6182 225.459 31.9869 225.459 32.3953Z" fill="#FAFAFA"/>
<path d="M229.886 35.0699V34.4049C229.471 34.9073 228.889 35.1603 228.148 35.1603C227.667 35.1603 227.255 35.0193 226.912 34.7374C226.716 34.5856 226.572 34.4049 226.481 34.1916C226.387 33.9784 226.344 33.7434 226.344 33.4832V29.7351H227.743V33.3242C227.743 33.4326 227.765 33.5338 227.812 33.6278C227.859 33.7218 227.92 33.8013 228.003 33.8736C228.083 33.9422 228.184 33.9965 228.299 34.0362C228.415 34.076 228.542 34.094 228.683 34.094C228.968 34.094 229.239 34.0001 229.496 33.8121C229.76 33.6314 229.893 33.4182 229.893 33.1724V29.7315H231.292V35.0699H229.893H229.886Z" fill="#FAFAFA"/>
<path d="M239.305 31.3363C239.283 31.2532 239.236 31.1737 239.168 31.1014C239.099 31.0291 239.012 30.964 238.911 30.9062C238.81 30.8484 238.694 30.805 238.568 30.7761C238.441 30.7472 238.308 30.7291 238.167 30.7291C238.026 30.7291 237.899 30.7435 237.78 30.7725C237.661 30.8014 237.559 30.8375 237.473 30.8845C237.386 30.9315 237.321 30.9857 237.27 31.0471C237.223 31.1086 237.198 31.1736 237.198 31.2387C237.198 31.452 237.606 31.6038 238.42 31.6941C238.763 31.7303 239.063 31.7772 239.316 31.8423C239.569 31.9037 239.779 31.9796 239.941 32.0664C240.429 32.323 240.671 32.717 240.671 33.2519C240.671 33.8338 240.415 34.3073 239.902 34.6723C239.443 34.9976 238.861 35.1603 238.149 35.1603C237.437 35.1603 236.862 34.9976 236.396 34.6723C235.9 34.3073 235.644 33.8121 235.629 33.1868H236.992C237.039 33.7579 237.44 34.0398 238.203 34.0398C238.34 34.0398 238.477 34.0217 238.608 33.9892C238.738 33.9567 238.85 33.9133 238.947 33.8555C239.045 33.7977 239.124 33.7326 239.182 33.6531C239.244 33.5736 239.273 33.4904 239.273 33.4001C239.273 33.0929 238.908 32.9049 238.174 32.8399C236.58 32.6736 235.781 32.1929 235.781 31.4014C235.781 30.8881 236.02 30.4652 236.497 30.1291C236.721 29.9628 236.967 29.84 237.241 29.7568C237.516 29.6737 237.812 29.6339 238.131 29.6339C239.598 29.6339 240.455 30.2014 240.697 31.3363H239.298H239.305Z" fill="#FAFAFA"/>
<path d="M239.902 37.2457C239.753 37.318 239.587 37.3758 239.406 37.4156C239.222 37.4554 239.02 37.4734 238.799 37.4734C238.123 37.4734 237.61 37.3036 237.256 36.9638V36.4036H236.818V35.6012H238.467V36.5193C238.568 36.5626 238.662 36.5843 238.752 36.5843C238.944 36.5843 239.038 36.5156 239.038 36.3747V35.5976H240.436V36.5301C240.436 36.8337 240.259 37.0722 239.909 37.2385L239.902 37.2457Z" fill="#FAFAFA"/>
<path d="M247.004 35.0699H246.039L244.803 31.7086L243.581 35.0699H242.609L241.004 29.7315H242.323L243.205 32.9302L244.387 29.7315H245.229L246.44 32.9302L247.636 28.7412H248.894L247.011 35.0699H247.004Z" fill="#FAFAFA"/>
<path d="M142.427 44.6118C141.823 45.8298 141.031 46.8671 140.048 47.7273C139.065 48.5875 137.909 49.249 136.575 49.7044C135.241 50.1598 133.781 50.3875 132.194 50.3875C128.338 50.3875 125.237 49.1369 122.895 46.6358C120.643 44.3226 119.515 41.3299 119.515 37.6614C119.515 33.9928 120.661 30.8592 122.949 28.4087C125.201 25.9907 128.284 24.7835 132.194 24.7835C133.673 24.7835 135.024 24.9715 136.25 25.3546C137.475 25.7341 138.603 26.3051 139.629 27.0642C140.71 27.8738 141.559 28.8352 142.17 29.9412C142.784 31.0472 143.171 32.2869 143.334 33.6567H137.898C137.807 33.0314 137.598 32.4495 137.262 31.9074C136.929 31.3652 136.503 30.9062 135.989 30.5267C135.476 30.1472 134.894 29.8472 134.247 29.6267C133.6 29.4062 132.914 29.2978 132.191 29.2978C131.002 29.2978 129.961 29.5147 129.068 29.9448C128.175 30.3749 127.405 31.0219 126.755 31.8857C126.231 32.6447 125.837 33.5085 125.566 34.4699C125.295 35.435 125.161 36.4976 125.161 37.665C125.161 38.8324 125.295 39.8553 125.566 40.7842C125.837 41.7131 126.231 42.5588 126.755 43.3178C128.034 45.0093 129.845 45.8515 132.191 45.8515C135.653 45.8515 137.627 44.0696 138.111 40.5023H143.547C143.402 42.0239 143.027 43.3937 142.423 44.6081L142.427 44.6118Z" fill="#FAFAFA"/>
<path d="M172.776 37.665C172.776 41.3155 171.667 44.3081 169.451 46.6394C168.262 47.89 166.896 48.8261 165.356 49.4514C163.816 50.0766 162.06 50.3875 160.097 50.3875C156.241 50.3875 153.139 49.1369 150.794 46.6358C148.538 44.3226 147.414 41.3299 147.414 37.6614C147.414 33.9928 148.56 30.8592 150.848 28.4087C153.1 25.9907 156.183 24.7835 160.093 24.7835C162.056 24.7835 163.813 25.0907 165.352 25.7088C166.892 26.3268 168.258 27.2449 169.447 28.4593C171.663 30.8411 172.772 33.9097 172.772 37.6614L172.776 37.665ZM167.123 37.665C167.123 35.3518 166.592 33.4254 165.529 31.8857C164.897 31.0255 164.131 30.3785 163.231 29.9448C162.331 29.5147 161.286 29.2978 160.093 29.2978C158.901 29.2978 157.863 29.5147 156.971 29.9448C156.078 30.3749 155.308 31.0219 154.657 31.8857C154.133 32.6447 153.739 33.5085 153.468 34.4699C153.197 35.435 153.064 36.4976 153.064 37.665C153.064 38.8324 153.197 39.8553 153.468 40.7842C153.739 41.7131 154.133 42.5588 154.657 43.3178C155.937 45.0093 157.748 45.8515 160.093 45.8515C162.439 45.8515 164.282 45.0057 165.529 43.3178C166.592 41.8143 167.123 39.9312 167.123 37.665Z" fill="#FAFAFA"/>
<path d="M193.812 49.8092L183.077 33.4073H183.023V49.8092H177.695V25.3474L184.096 25.4052L194.137 41.8251H194.191V25.351H199.519V49.8128H193.812V49.8092Z" fill="#FAFAFA"/>
<path d="M211.666 48.9237C211.533 48.6309 211.439 48.2261 211.392 47.7056L211.247 46.343C211.2 46.0539 211.131 45.8045 211.037 45.5949C210.947 45.3889 210.824 45.219 210.676 45.0889C210.524 44.9587 210.343 44.8612 210.127 44.8033C209.913 44.7455 209.657 44.713 209.364 44.713H206.827V48.9273H204.336V38.1457H210.437C210.954 38.1457 211.421 38.2216 211.836 38.3734C212.255 38.5252 212.606 38.7385 212.899 39.0059C213.188 39.2734 213.412 39.5915 213.571 39.9529C213.73 40.3179 213.81 40.7083 213.81 41.1275C213.81 42.4612 213.206 43.3576 211.999 43.8202V43.8419C213.014 44.0732 213.578 44.9154 213.69 46.3683L213.763 47.6659C213.802 47.9731 213.849 48.2261 213.907 48.4321C213.961 48.6381 214.034 48.8044 214.12 48.9309H211.666V48.9237ZM211.319 41.4818C211.319 40.477 210.741 39.9746 209.581 39.9746H206.827V43.0251H209.581C210.741 43.0251 211.319 42.5118 211.319 41.4818Z" fill="#FAFAFA"/>
<path d="M226.991 43.5708C226.991 45.1792 226.503 46.4984 225.527 47.5249C225.003 48.0743 224.4 48.4899 223.72 48.7646C223.041 49.0393 222.267 49.1767 221.403 49.1767C219.705 49.1767 218.338 48.6237 217.305 47.5213C216.311 46.502 215.816 45.1828 215.816 43.5672C215.816 41.9516 216.322 40.5709 217.33 39.4902C218.324 38.424 219.683 37.8927 221.407 37.8927C222.271 37.8927 223.044 38.03 223.724 38.3011C224.403 38.5722 225.003 38.977 225.531 39.5155C226.507 40.5637 226.995 41.9155 226.995 43.5708H226.991ZM224.501 43.5708C224.501 42.5516 224.266 41.7022 223.796 41.0227C223.518 40.6432 223.182 40.3577 222.784 40.1697C222.387 39.9782 221.928 39.8842 221.403 39.8842C220.879 39.8842 220.42 39.9782 220.026 40.1697C219.632 40.3613 219.293 40.6432 219.007 41.0227C218.776 41.3588 218.602 41.7384 218.483 42.1612C218.364 42.5841 218.306 43.054 218.306 43.5672C218.306 44.0804 218.364 44.5322 218.483 44.9407C218.602 45.3491 218.776 45.7214 219.007 46.0575C219.571 46.802 220.37 47.1743 221.403 47.1743C222.437 47.1743 223.25 46.802 223.8 46.0575C224.27 45.3924 224.505 44.5648 224.505 43.5672L224.501 43.5708Z" fill="#FAFAFA"/>
<path d="M239.847 43.5708C239.847 45.1792 239.359 46.4984 238.38 47.5249C237.856 48.0743 237.252 48.4899 236.576 48.7646C235.897 49.0393 235.123 49.1767 234.26 49.1767C232.557 49.1767 231.191 48.6237 230.161 47.5213C229.167 46.502 228.672 45.1828 228.672 43.5672C228.672 41.9516 229.178 40.5709 230.186 39.4902C231.18 38.424 232.539 37.8927 234.263 37.8927C235.131 37.8927 235.9 38.03 236.58 38.3011C237.259 38.5722 237.859 38.977 238.383 39.5155C239.359 40.5637 239.851 41.9155 239.851 43.5708H239.847ZM237.357 43.5708C237.357 42.5516 237.122 41.7022 236.652 41.0227C236.374 40.6432 236.038 40.3577 235.64 40.1697C235.243 39.9782 234.784 39.8842 234.26 39.8842C233.735 39.8842 233.276 39.9782 232.882 40.1697C232.489 40.3613 232.149 40.6432 231.863 41.0227C231.632 41.3588 231.458 41.7384 231.339 42.1612C231.22 42.5841 231.162 43.054 231.162 43.5672C231.162 44.0804 231.22 44.5322 231.339 44.9407C231.458 45.3491 231.632 45.7214 231.863 46.0575C232.427 46.802 233.226 47.1743 234.26 47.1743C235.293 47.1743 236.106 46.802 236.656 46.0575C237.126 45.3924 237.361 44.5648 237.361 43.5672L237.357 43.5708Z" fill="#FAFAFA"/>
<path d="M244.506 40.1408V42.6311H249.321V44.4636H244.506V48.9237H242.016V38.1421H250V40.1408H244.506Z" fill="#FAFAFA"/>
<path d="M115.258 47.3912C115.258 49.0032 113.768 50.308 111.936 50.308C110.1 50.308 108.614 49.0032 108.614 47.3912V28.7629C108.614 27.1509 110.103 25.8461 111.936 25.8461C113.772 25.8461 115.258 27.1509 115.258 28.7629V47.3912Z" fill="#FAFAFA"/>
<path d="M33.8627 34.7591L53.6331 16.3802L110.642 52.7043L53.6042 0L16.7416 34.1013C22.4848 34.1013 28.1629 34.2458 33.8627 34.7591Z" fill="#FAFAFA"/>
<path d="M33.8627 34.7591C28.1629 34.2458 22.4848 34.1013 16.7416 34.1013L0 49.5923C0 49.5923 8.51176 46.0539 23.2004 44.6732C38.3047 43.2528 59.9365 44.113 85.5839 53.4488C66.7496 40.7191 50.2104 36.2301 33.8627 34.7591Z" fill="#FAFAFA"/>
<path d="M115.507 19.3765C115.507 21.4186 113.852 23.0739 111.81 23.0739C109.767 23.0739 108.112 21.4186 108.112 19.3765C108.112 17.3344 109.767 15.679 111.81 15.679C113.852 15.679 115.507 17.3344 115.507 19.3765Z" fill="#FAFAFA"/>
</g>
<defs>
<clipPath id="clip0_11_87">
<rect width="250" height="53.4488" fill="white"/>
</clipPath>
</defs>
</svg>
