<svg width="427" height="427" fill="none" xmlns="http://www.w3.org/2000/svg"><path d="M330.484 426.667H96.192c-53.124 0-96.186-43.066-96.186-96.188V96.188C.006 43.065 43.068 0 96.192 0h234.292c53.124 0 96.188 43.065 96.188 96.188v234.291c0 53.122-43.064 96.188-96.188 96.188z" fill="#06C755"/><path d="M355.547 193.233c0-63.653-63.812-115.44-142.251-115.44-78.433 0-142.252 51.787-142.252 115.44 0 57.064 50.607 104.856 118.968 113.889 4.631 1.002 10.938 3.056 12.531 7.016 1.435 3.595.939 9.23.461 12.862 0 0-1.669 10.038-2.032 12.178-.62 3.594-2.858 14.066 12.324 7.67 15.182-6.399 81.92-48.24 111.766-82.588h-.007c20.615-22.61 30.492-45.554 30.492-71.027z" fill="#fff"/><path d="M308.223 229.987h-39.966a2.715 2.715 0 01-2.716-2.716v-62.082c0-1.5 1.216-2.716 2.716-2.716h39.966a2.724 2.724 0 012.716 2.716v10.088c0 1.5-1.216 2.716-2.716 2.716h-27.16v10.476h27.16a2.725 2.725 0 012.716 2.716v10.09c0 1.5-1.216 2.716-2.716 2.716h-27.16v10.476h27.16a2.723 2.723 0 012.716 2.714v10.09a2.715 2.715 0 01-2.716 2.716zm-147.832 0c1.5 0 2.716-1.215 2.716-2.716v-10.09a2.723 2.723 0 00-2.716-2.714h-27.162v-49.278a2.723 2.723 0 00-2.714-2.716h-10.09a2.716 2.716 0 00-2.716 2.716v62.082a2.715 2.715 0 002.716 2.716h39.966zm24.058-67.514h-10.087a2.718 2.718 0 00-2.717 2.716v62.082c0 1.5 1.217 2.716 2.717 2.716h10.087a2.715 2.715 0 002.716-2.716v-62.082a2.716 2.716 0 00-2.716-2.716zm68.679 0H243.04a2.717 2.717 0 00-2.716 2.716v36.873l-28.404-38.359a3.003 3.003 0 00-.219-.28l-.017-.02a2.616 2.616 0 00-.164-.169l-.051-.047c-.048-.042-.096-.084-.147-.125l-.074-.055a4.493 4.493 0 00-.227-.148 2.42 2.42 0 00-.149-.082c-.03-.015-.058-.03-.087-.043a2.813 2.813 0 00-.159-.068l-.088-.032a2.266 2.266 0 00-.262-.079c-.054-.012-.107-.024-.162-.034l-.114-.019c-.05-.005-.098-.012-.147-.016a1.737 1.737 0 00-.144-.008c-.032-.001-.063-.005-.095-.005h-10.032a2.717 2.717 0 00-2.716 2.716v62.082c0 1.5 1.216 2.716 2.716 2.716h10.088c1.5 0 2.716-1.216 2.716-2.716V190.41l28.44 38.407c.196.277.436.504.702.684l.03.021c.055.037.114.072.171.104.027.015.052.031.08.043.043.024.085.045.131.064a1.899 1.899 0 00.218.089c.062.021.124.043.188.06.014.004.027.008.039.009.227.06.464.096.711.096h10.032c1.5 0 2.716-1.216 2.716-2.716v-62.082a2.717 2.717 0 00-2.716-2.716z" fill="#06C755"/></svg>