<svg width="427" height="427" viewBox="0 0 427 427" fill="none" xmlns="http://www.w3.org/2000/svg">
<path d="M330.484 426.667H96.1923C43.0683 426.667 0.00561523 383.601 0.00561523 330.479V96.1879C0.00561523 43.0652 43.0683 -0.000137329 96.1923 -0.000137329H330.484C383.608 -0.000137329 426.672 43.0652 426.672 96.1879V330.479C426.672 383.601 383.608 426.667 330.484 426.667Z" fill="#06C755"/>
<path d="M355.547 193.233C355.547 129.58 291.735 77.7929 213.296 77.7929C134.863 77.7929 71.0442 129.58 71.0442 193.233C71.0442 250.297 121.651 298.089 190.012 307.122C194.643 308.124 200.95 310.178 202.543 314.138C203.978 317.733 203.482 323.368 203.004 327C203.004 327 201.335 337.038 200.972 339.178C200.352 342.772 198.114 353.244 213.296 346.848C228.478 340.449 295.216 298.608 325.062 264.26H325.055C345.67 241.65 355.547 218.706 355.547 193.233Z" fill="white"/>
<path d="M308.223 229.987H268.311H268.257C266.757 229.987 265.541 228.772 265.541 227.271V227.228V227.224V165.252V165.248V165.189C265.541 163.689 266.757 162.473 268.257 162.473H268.311H308.223C309.716 162.473 310.939 163.695 310.939 165.189V175.277C310.939 176.777 309.723 177.993 308.223 177.993H281.063V188.469H308.223C309.716 188.469 310.939 189.692 310.939 191.185V201.275C310.939 202.775 309.723 203.991 308.223 203.991H281.063V214.467H308.223C309.716 214.467 310.939 215.688 310.939 217.181V227.271C310.939 228.772 309.723 229.987 308.223 229.987Z" fill="#06C755"/>
<path d="M160.391 229.987C161.891 229.987 163.107 228.772 163.107 227.271V217.181C163.107 215.688 161.884 214.467 160.391 214.467H133.229V165.189C133.229 163.695 132.008 162.473 130.515 162.473H120.425C118.925 162.473 117.709 163.689 117.709 165.189V227.224V227.228V227.271C117.709 228.772 118.925 229.987 120.425 229.987H120.479H160.391Z" fill="#06C755"/>
<path d="M184.449 162.473H174.362C172.862 162.473 171.645 163.69 171.645 165.189V227.271C171.645 228.771 172.862 229.987 174.362 229.987H184.449C185.95 229.987 187.165 228.771 187.165 227.271V165.189C187.165 163.69 185.95 162.473 184.449 162.473Z" fill="#06C755"/>
<path d="M253.128 162.473H243.04C241.54 162.473 240.324 163.69 240.324 165.189V202.062L211.92 163.703C211.853 163.605 211.778 163.511 211.701 163.423C211.696 163.417 211.69 163.41 211.684 163.403C211.632 163.345 211.577 163.287 211.52 163.234L211.469 163.187C211.421 163.145 211.373 163.103 211.322 163.062L211.248 163.007C211.202 162.974 211.154 162.942 211.104 162.909C211.077 162.891 211.049 162.875 211.021 162.859C210.972 162.83 210.922 162.802 210.872 162.777C210.842 162.762 210.814 162.747 210.785 162.734C210.733 162.71 210.68 162.687 210.626 162.666C210.597 162.655 210.568 162.645 210.538 162.634C210.484 162.614 210.429 162.597 210.373 162.581C210.341 162.571 210.309 162.563 210.276 162.555C210.222 162.543 210.169 162.531 210.114 162.521C210.077 162.514 210.038 162.509 210 162.502C209.95 162.497 209.902 162.49 209.853 162.486C209.805 162.481 209.757 162.479 209.709 162.478C209.677 162.477 209.646 162.473 209.614 162.473H199.582C198.082 162.473 196.866 163.69 196.866 165.189V227.271C196.866 228.771 198.082 229.987 199.582 229.987H209.67C211.17 229.987 212.386 228.771 212.386 227.271V190.41L240.826 228.817C241.022 229.094 241.262 229.321 241.528 229.501C241.538 229.507 241.548 229.515 241.558 229.522C241.613 229.559 241.672 229.594 241.729 229.626C241.756 229.641 241.781 229.657 241.809 229.669C241.852 229.693 241.894 229.714 241.94 229.733C241.985 229.754 242.028 229.773 242.073 229.79C242.101 229.802 242.13 229.813 242.158 229.822C242.22 229.843 242.282 229.865 242.346 229.882C242.36 229.886 242.373 229.89 242.385 229.891C242.612 229.951 242.849 229.987 243.096 229.987H253.128C254.628 229.987 255.844 228.771 255.844 227.271V165.189C255.844 163.69 254.628 162.473 253.128 162.473Z" fill="#06C755"/>
</svg>
