<svg width="172" height="30" viewBox="0 0 172 30" fill="none" xmlns="http://www.w3.org/2000/svg">
<path d="M16.9688 20.6584L26.861 11.4427L55.3857 29.6567L26.8465 3.22923L8.40215 20.3286C11.2758 20.3286 14.1168 20.4011 16.9688 20.6584Z" fill="#FAFAFA"/>
<path d="M16.9615 20.7167C14.1065 20.4618 11.2624 20.39 8.38572 20.39L0 28.0845C0 28.0845 4.26346 26.3269 11.6209 25.6411C19.1865 24.9356 30.0217 25.3629 42.8682 30C33.4342 23.6771 25.1499 21.4474 16.9615 20.7167Z" fill="#FAFAFA"/>
<path d="M64.8079 14.8277H67.9778L64.9484 29.1634H61.7986L64.8079 14.8277Z" fill="#FAFAFA"/>
<path d="M78.9498 19.807C78.9498 18.9236 78.7091 18.261 78.2276 17.8193C77.7594 17.3642 77.1442 17.1366 76.3818 17.1366C75.5793 17.1366 74.8772 17.324 74.2753 17.6988C73.6868 18.0602 73.1986 18.5354 72.8107 19.1244C72.4362 19.6999 72.1554 20.3491 71.9681 21.0719C71.7809 21.7814 71.6872 22.4774 71.6872 23.1601C71.6872 23.6553 71.7474 24.1238 71.8678 24.5655C72.0016 25.0073 72.1955 25.4021 72.4496 25.7501C72.7171 26.0848 73.0515 26.3525 73.4527 26.5533C73.8673 26.754 74.3622 26.8544 74.9373 26.8544C75.3653 26.8544 75.7666 26.7808 76.1411 26.6336C76.5289 26.473 76.87 26.2655 77.1643 26.0112C77.4585 25.7434 77.7059 25.4356 77.9066 25.0876C78.1072 24.7395 78.2409 24.3781 78.3078 24.0033H81.4576C81.1366 25.0073 80.7554 25.8572 80.314 26.5533C79.886 27.2493 79.3979 27.8182 78.8495 28.2599C78.3145 28.6882 77.7126 28.9961 77.0439 29.1835C76.3885 29.3843 75.673 29.4847 74.8972 29.4847C72.8642 29.4847 71.2927 28.9426 70.1826 27.8583C69.0858 26.7741 68.5375 25.208 68.5375 23.1601C68.5375 21.9955 68.718 20.8912 69.0792 19.8472C69.4403 18.8031 69.9552 17.8862 70.6239 17.0965C71.3061 16.2934 72.1286 15.6576 73.0916 15.1891C74.068 14.7206 75.158 14.4863 76.3618 14.4863C77.191 14.4863 77.9601 14.6001 78.6689 14.8277C79.3778 15.0552 79.9864 15.3965 80.4946 15.8516C81.0162 16.2934 81.4175 16.8489 81.6983 17.5181C81.9792 18.174 82.113 18.937 82.0996 19.807H78.9498Z" fill="#FAFAFA"/>
<path d="M83.4079 23.1601C83.4079 21.9955 83.5884 20.8912 83.9495 19.8472C84.3107 18.8031 84.8256 17.8862 85.4943 17.0965C86.1765 16.2934 86.999 15.6576 87.962 15.1891C88.9384 14.7206 90.0284 14.4863 91.2322 14.4863C92.1951 14.4863 93.0712 14.6202 93.8603 14.8879C94.6494 15.1422 95.3182 15.5304 95.8665 16.0524C96.4149 16.5745 96.8362 17.217 97.1305 17.9799C97.4381 18.7429 97.5919 19.6263 97.5919 20.6302C97.5919 21.8081 97.418 22.9325 97.0703 24.0033C96.7225 25.0742 96.2143 26.0178 95.5456 26.8344C94.8902 27.6509 94.0743 28.3001 93.098 28.7819C92.135 29.2504 91.0249 29.4847 89.7676 29.4847C87.7346 29.4847 86.1631 28.9426 85.053 27.8583C83.9562 26.7741 83.4079 25.208 83.4079 23.1601ZM86.5576 23.1601C86.5576 23.6553 86.6178 24.1238 86.7382 24.5655C86.872 25.0073 87.0659 25.4021 87.32 25.7501C87.5875 26.0848 87.9219 26.3525 88.3231 26.5533C88.7377 26.754 89.2326 26.8544 89.8077 26.8544C90.5835 26.8544 91.2589 26.6737 91.834 26.3123C92.4091 25.9375 92.8906 25.4624 93.2785 24.8868C93.6664 24.2978 93.9539 23.6486 94.1412 22.9392C94.3418 22.2298 94.4421 21.5337 94.4421 20.8511C94.4421 20.3424 94.3819 19.8673 94.2616 19.4255C94.1546 18.9704 93.974 18.5756 93.7199 18.2409C93.4658 17.9063 93.1381 17.6386 92.7368 17.4378C92.3356 17.237 91.8407 17.1366 91.2522 17.1366C90.4497 17.1366 89.7475 17.324 89.1457 17.6988C88.5572 18.0602 88.069 18.5354 87.6811 19.1244C87.3066 19.6999 87.0258 20.3491 86.8385 21.0719C86.6513 21.7814 86.5576 22.4774 86.5576 23.1601Z" fill="#FAFAFA"/>
<path d="M101.23 14.8277H104.48L108.372 25.0273H108.412L110.458 14.8277H113.347L110.318 29.1634H107.168L103.236 19.1043H103.196L101.149 29.1634H98.2203L101.23 14.8277Z" fill="#FAFAFA"/>
<path d="M117.886 21.3129H120.795C121.223 21.3129 121.631 21.2727 122.018 21.1924C122.406 21.0987 122.747 20.9649 123.042 20.7909C123.349 20.6035 123.59 20.3692 123.764 20.0881C123.951 19.7936 124.045 19.4456 124.045 19.0441C124.045 18.6559 123.978 18.348 123.844 18.1205C123.724 17.8795 123.556 17.6988 123.342 17.5784C123.128 17.4579 122.881 17.3776 122.6 17.3374C122.319 17.2973 122.025 17.2772 121.717 17.2772H118.728L117.886 21.3129ZM116.08 14.8277H122.921C123.563 14.8143 124.145 14.8745 124.667 15.0084C125.202 15.1288 125.656 15.343 126.031 15.6509C126.405 15.9453 126.693 16.3335 126.894 16.8154C127.094 17.2973 127.194 17.8862 127.194 18.5823C127.194 19.0641 127.114 19.5259 126.954 19.9677C126.793 20.4094 126.566 20.8042 126.272 21.1523C125.977 21.4869 125.63 21.768 125.228 21.9955C124.827 22.2231 124.386 22.3703 123.904 22.4373V22.4774C124.493 22.6648 124.887 22.9927 125.088 23.4612C125.289 23.9163 125.389 24.4317 125.389 25.0073C125.389 25.3285 125.369 25.7167 125.329 26.1718C125.302 26.6135 125.289 27.0552 125.289 27.4969C125.289 27.8182 125.302 28.126 125.329 28.4205C125.355 28.7016 125.409 28.9492 125.489 29.1634H122.42C122.38 28.9894 122.346 28.8288 122.319 28.6815C122.293 28.5209 122.279 28.3603 122.279 28.1997C122.279 27.7178 122.306 27.2359 122.359 26.754C122.413 26.2588 122.44 25.7702 122.44 25.2883C122.44 24.9403 122.386 24.6592 122.279 24.4451C122.186 24.2175 122.045 24.0368 121.858 23.903C121.684 23.7691 121.47 23.6821 121.216 23.6419C120.962 23.5884 120.681 23.5616 120.373 23.5616H117.404L116.22 29.1634H113.091L116.08 14.8277Z" fill="#FAFAFA"/>
<path d="M128.372 23.1601C128.372 21.9955 128.552 20.8912 128.913 19.8472C129.275 18.8031 129.789 17.8862 130.458 17.0965C131.14 16.2934 131.963 15.6576 132.926 15.1891C133.902 14.7206 134.992 14.4863 136.196 14.4863C137.159 14.4863 138.035 14.6202 138.824 14.8879C139.613 15.1422 140.282 15.5304 140.83 16.0524C141.379 16.5745 141.8 17.217 142.094 17.9799C142.402 18.7429 142.556 19.6263 142.556 20.6302C142.556 21.8081 142.382 22.9325 142.034 24.0033C141.686 25.0742 141.178 26.0178 140.509 26.8344C139.854 27.6509 139.038 28.3001 138.062 28.7819C137.099 29.2504 135.989 29.4847 134.731 29.4847C132.698 29.4847 131.127 28.9426 130.017 27.8583C128.92 26.7741 128.372 25.208 128.372 23.1601ZM131.521 23.1601C131.521 23.6553 131.582 24.1238 131.702 24.5655C131.836 25.0073 132.03 25.4021 132.284 25.7501C132.551 26.0848 132.886 26.3525 133.287 26.5533C133.702 26.754 134.196 26.8544 134.772 26.8544C135.547 26.8544 136.223 26.6737 136.798 26.3123C137.373 25.9375 137.854 25.4624 138.242 24.8868C138.63 24.2978 138.918 23.6486 139.105 22.9392C139.306 22.2298 139.406 21.5337 139.406 20.8511C139.406 20.3424 139.346 19.8673 139.225 19.4255C139.118 18.9704 138.938 18.5756 138.684 18.2409C138.43 17.9063 138.102 17.6386 137.701 17.4378C137.299 17.237 136.805 17.1366 136.216 17.1366C135.414 17.1366 134.711 17.324 134.11 17.6988C133.521 18.0602 133.033 18.5354 132.645 19.1244C132.27 19.6999 131.99 20.3491 131.802 21.0719C131.615 21.7814 131.521 22.4774 131.521 23.1601Z" fill="#FAFAFA"/>
<path d="M143.987 23.1601C143.987 21.9955 144.167 20.8912 144.528 19.8472C144.889 18.8031 145.404 17.8862 146.073 17.0965C146.755 16.2934 147.578 15.6576 148.541 15.1891C149.517 14.7206 150.607 14.4863 151.811 14.4863C152.774 14.4863 153.65 14.6202 154.439 14.8879C155.228 15.1422 155.897 15.5304 156.445 16.0524C156.994 16.5745 157.415 17.217 157.709 17.9799C158.017 18.7429 158.171 19.6263 158.171 20.6302C158.171 21.8081 157.997 22.9325 157.649 24.0033C157.301 25.0742 156.793 26.0178 156.124 26.8344C155.469 27.6509 154.653 28.3001 153.677 28.7819C152.714 29.2504 151.604 29.4847 150.346 29.4847C148.313 29.4847 146.742 28.9426 145.632 27.8583C144.535 26.7741 143.987 25.208 143.987 23.1601ZM147.136 23.1601C147.136 23.6553 147.197 24.1238 147.317 24.5655C147.451 25.0073 147.645 25.4021 147.899 25.7501C148.166 26.0848 148.501 26.3525 148.902 26.5533C149.316 26.754 149.811 26.8544 150.386 26.8544C151.162 26.8544 151.838 26.6737 152.413 26.3123C152.988 25.9375 153.469 25.4624 153.857 24.8868C154.245 24.2978 154.533 23.6486 154.72 22.9392C154.921 22.2298 155.021 21.5337 155.021 20.8511C155.021 20.3424 154.961 19.8673 154.84 19.4255C154.733 18.9704 154.553 18.5756 154.299 18.2409C154.045 17.9063 153.717 17.6386 153.316 17.4378C152.914 17.237 152.419 17.1366 151.831 17.1366C151.028 17.1366 150.326 17.324 149.724 17.6988C149.136 18.0602 148.648 18.5354 148.26 19.1244C147.885 19.6999 147.605 20.3491 147.417 21.0719C147.23 21.7814 147.136 22.4774 147.136 23.1601Z" fill="#FAFAFA"/>
<path d="M161.808 14.8277H172L171.418 17.478H164.396L163.694 20.7909H169.833L169.312 23.2404H163.193L161.929 29.1634H158.799L161.808 14.8277Z" fill="#FAFAFA"/>
<path d="M64.1659 9.08533C63.6577 9.08533 63.2832 8.96152 63.0424 8.71389C62.8084 8.46626 62.6913 8.1082 62.6913 7.63971V2.48968C62.6913 2.10151 62.7883 1.80703 62.9822 1.60625C63.1762 1.40547 63.4036 1.27161 63.6644 1.20468V1.15449H61.5077V0H65.159V1.15449H65.0186C64.7578 1.15449 64.5505 1.2348 64.3966 1.39543C64.2495 1.55605 64.176 1.7836 64.176 2.07808V7.93084H64.8681V9.08533H64.1659Z" fill="#FAFAFA"/>
<path d="M68.0497 9.2058C67.6953 9.2058 67.3676 9.15895 67.0666 9.06525C66.7657 8.96486 66.5049 8.83101 66.2842 8.66369C66.0702 8.48968 65.8997 8.28556 65.7726 8.05131C65.6523 7.81707 65.5921 7.5594 65.5921 7.27831V6.78639C65.5921 6.51199 65.6656 6.29448 65.8128 6.13385C65.9666 5.97323 66.1939 5.89292 66.4949 5.89292H67.6986V6.98717H66.9262V7.1478C66.9262 7.44897 67.0265 7.67987 67.2271 7.84049C67.4278 7.99442 67.7187 8.07139 68.0999 8.07139C68.4409 8.07139 68.7017 7.95761 68.8823 7.73006C69.0695 7.49582 69.1632 7.17791 69.1632 6.77635V5.85276C69.1632 5.4512 69.0562 5.13999 68.8422 4.91913C68.6282 4.69158 68.3272 4.5778 67.9394 4.5778C67.7521 4.5778 67.5749 4.60123 67.4077 4.64808C67.2472 4.69492 67.1001 4.75516 66.9663 4.82878C66.8393 4.9024 66.7256 4.98606 66.6253 5.07975C66.5317 5.16676 66.4581 5.25042 66.4046 5.33073L65.5018 4.52761C65.7091 4.21305 66.0201 3.94869 66.4347 3.73452C66.856 3.51366 67.3776 3.40323 67.9995 3.40323C68.4209 3.40323 68.7987 3.47016 69.1331 3.60402C69.4741 3.73118 69.7617 3.92192 69.9957 4.17624C70.2298 4.42387 70.407 4.72839 70.5274 5.08979C70.6545 5.44451 70.718 5.84941 70.718 6.30452C70.718 6.75962 70.6578 7.16787 70.5374 7.52928C70.4171 7.88399 70.2398 8.18851 70.0058 8.44283C69.7784 8.69046 69.4975 8.8812 69.1632 9.01506C68.8355 9.14222 68.4643 9.2058 68.0497 9.2058Z" fill="#FAFAFA"/>
<path d="M71.748 5.76241C71.748 5.401 71.8115 5.07641 71.9386 4.78862C72.0656 4.50084 72.2462 4.25321 72.4803 4.04573C72.7143 3.83826 72.9985 3.68098 73.3329 3.5739C73.674 3.46012 74.0551 3.40323 74.4765 3.40323C74.8978 3.40323 75.2756 3.46012 75.61 3.5739C75.951 3.68098 76.2386 3.83826 76.4727 4.04573C76.7067 4.25321 76.8873 4.50084 77.0143 4.78862C77.1414 5.07641 77.2049 5.401 77.2049 5.76241V9.08533H75.7203V5.83268C75.7203 5.43112 75.61 5.12326 75.3893 4.90909C75.1686 4.68823 74.8643 4.5778 74.4765 4.5778C74.0886 4.5778 73.7843 4.68823 73.5636 4.90909C73.3429 5.12326 73.2326 5.43112 73.2326 5.83268V7.02733H73.2828C73.3095 6.88009 73.3563 6.73954 73.4232 6.60569C73.4901 6.46514 73.577 6.34133 73.684 6.23424C73.7977 6.12716 73.9314 6.0435 74.0852 5.98327C74.2391 5.91634 74.4196 5.88288 74.6269 5.88288H74.8877V7.26827H74.5166C74.0819 7.26827 73.7576 7.32515 73.5436 7.43893C73.3362 7.55271 73.2326 7.76353 73.2326 8.07139V9.08533H71.748V5.76241Z" fill="#FAFAFA"/>
<path d="M80.7552 9.2058C80.4007 9.2058 80.0731 9.15895 79.7721 9.06525C79.4712 8.96486 79.2104 8.83101 78.9897 8.66369C78.7757 8.48968 78.6052 8.28556 78.4781 8.05131C78.3577 7.81707 78.2975 7.5594 78.2975 7.27831V6.78639C78.2975 6.51199 78.3711 6.29448 78.5182 6.13385C78.672 5.97323 78.8994 5.89292 79.2003 5.89292H80.4041V6.98717H79.6317V7.1478C79.6317 7.44897 79.732 7.67987 79.9326 7.84049C80.1332 7.99442 80.4241 8.07139 80.8053 8.07139C81.1464 8.07139 81.4072 7.95761 81.5878 7.73006C81.775 7.49582 81.8686 7.17791 81.8686 6.77635V5.85276C81.8686 5.4512 81.7616 5.13999 81.5476 4.91913C81.3336 4.69158 81.0327 4.5778 80.6448 4.5778C80.4576 4.5778 80.2804 4.60123 80.1132 4.64808C79.9527 4.69492 79.8056 4.75516 79.6718 4.82878C79.5447 4.9024 79.4311 4.98606 79.3307 5.07975C79.2371 5.16676 79.1636 5.25042 79.1101 5.33073L78.2073 4.52761C78.4146 4.21305 78.7255 3.94869 79.1402 3.73452C79.5615 3.51366 80.0831 3.40323 80.705 3.40323C81.1263 3.40323 81.5042 3.47016 81.8385 3.60402C82.1796 3.73118 82.4672 3.92192 82.7012 4.17624C82.9353 4.42387 83.1125 4.72839 83.2329 5.08979C83.3599 5.44451 83.4235 5.84941 83.4235 6.30452C83.4235 6.75962 83.3633 7.16787 83.2429 7.52928C83.1225 7.88399 82.9453 8.18851 82.7112 8.44283C82.4839 8.69046 82.203 8.8812 81.8686 9.01506C81.5409 9.14222 81.1698 9.2058 80.7552 9.2058Z" fill="#FAFAFA"/>
<path d="M86.2089 9.2058C85.6338 9.2058 85.1958 9.01841 84.8948 8.64361C84.6006 8.26213 84.4534 7.72002 84.4534 7.01729V3.5237H85.9381V6.88678C85.9381 7.04741 85.9514 7.19799 85.9782 7.33854C86.0049 7.47239 86.0517 7.58951 86.1186 7.68991C86.1855 7.7836 86.2758 7.86057 86.3895 7.9208C86.5098 7.97434 86.657 8.00112 86.8308 8.00112C86.9512 8.00112 87.0716 7.98438 87.192 7.95092C87.319 7.91076 87.4294 7.85388 87.523 7.78026C87.6166 7.70664 87.6935 7.61629 87.7537 7.5092C87.8139 7.40212 87.844 7.2783 87.844 7.13776V3.5237H89.3286V7.93084H89.8201V9.08533H88.9273C88.3255 9.08533 88.0145 8.74066 87.9944 8.05131H87.9242C87.8707 8.20524 87.7972 8.35248 87.7035 8.49303C87.6166 8.62688 87.5029 8.74735 87.3625 8.85443C87.2287 8.96152 87.0649 9.04518 86.871 9.10541C86.6837 9.17234 86.463 9.2058 86.2089 9.2058Z" fill="#FAFAFA"/>
<path d="M92.8983 9.2058C92.3633 9.2058 91.9085 9.1188 91.534 8.94479C91.1662 8.77078 90.8419 8.52649 90.561 8.21194L91.4538 7.34858C91.6477 7.56274 91.8684 7.73675 92.1158 7.87061C92.37 7.99777 92.6542 8.06135 92.9685 8.06135C93.2761 8.06135 93.5001 8.01115 93.6406 7.91076C93.781 7.81037 93.8512 7.67987 93.8512 7.51924C93.8512 7.34523 93.7944 7.22142 93.6807 7.1478C93.567 7.06749 93.4132 7.01394 93.2193 6.98717L92.6475 6.9169C92.0389 6.84328 91.5708 6.66592 91.2431 6.38483C90.9221 6.10374 90.7616 5.71221 90.7616 5.21026C90.7616 4.92917 90.8118 4.67819 90.9121 4.45733C91.0191 4.23648 91.1662 4.04908 91.3535 3.89515C91.5474 3.73452 91.7748 3.61405 92.0356 3.53374C92.3031 3.44674 92.5973 3.40323 92.9183 3.40323C93.1858 3.40323 93.4266 3.42331 93.6406 3.46347C93.8546 3.49693 94.0485 3.55047 94.2224 3.62409C94.4029 3.69771 94.5668 3.78806 94.7139 3.89515C94.861 4.00223 95.0048 4.12605 95.1452 4.26659L94.2725 5.12995C94.112 4.95594 93.9148 4.81539 93.6807 4.70831C93.4466 4.60123 93.2025 4.54769 92.9484 4.54769C92.6742 4.54769 92.4736 4.59788 92.3466 4.69827C92.2195 4.79866 92.156 4.92917 92.156 5.08979C92.156 5.25042 92.2061 5.38093 92.3064 5.48132C92.4134 5.57501 92.594 5.63859 92.8481 5.67206L93.4199 5.75237C93.7075 5.79253 93.9616 5.85276 94.1823 5.93307C94.4096 6.01339 94.6002 6.12047 94.754 6.25432C94.9145 6.38148 95.0349 6.53876 95.1152 6.72616C95.2021 6.91355 95.2456 7.13776 95.2456 7.39877C95.2456 7.65979 95.1887 7.90073 95.075 8.12158C94.9613 8.34244 94.8008 8.53318 94.5935 8.69381C94.3929 8.85443 94.1455 8.9816 93.8512 9.07529C93.5637 9.1623 93.246 9.2058 92.8983 9.2058Z" fill="#FAFAFA"/>
<path d="M93.3621 12.6793C93.0745 12.6793 92.8337 12.6458 92.6398 12.5789C92.4392 12.5187 92.2787 12.4283 92.1583 12.3079C92.0379 12.1941 91.951 12.0569 91.8975 11.8963C91.844 11.7423 91.8173 11.5683 91.8173 11.3742V11.0831H91.1753V10.1294H91.9677C92.3021 10.1294 92.5428 10.193 92.69 10.3201C92.8304 10.4473 92.9006 10.618 92.9006 10.8321V11.1634C92.9006 11.5382 93.0578 11.7256 93.3721 11.7256C93.546 11.7256 93.6697 11.6788 93.7432 11.5851C93.8168 11.498 93.8536 11.3575 93.8536 11.1634V10.1294H95.0673V11.0429C95.0673 11.5248 94.9303 11.9163 94.6561 12.2175C94.3752 12.5254 93.9439 12.6793 93.3621 12.6793Z" fill="#FAFAFA"/>
<path d="M95.9225 3.5237H97.2767L97.5375 6.42499L97.5977 7.33854H97.678L97.8786 6.42499L98.6309 3.5237H99.614L100.366 6.42499L100.567 7.33854H100.637L100.667 6.42499L101.169 1.58617H102.593L101.57 9.08533H99.9951L99.2729 5.82264L99.1325 5.0396H99.1024L98.9419 5.82264L98.2096 9.08533H96.6648L95.9225 3.5237Z" fill="#FAFAFA"/>
</svg>
