<svg width="90" height="100" viewBox="0 0 90 100" fill="none" xmlns="http://www.w3.org/2000/svg">
<path fill-rule="evenodd" clip-rule="evenodd" d="M62.4221 0C64.0236 13.75 72.2658 23.457 85.6057 24.3164V37.3633H85.5275V26.2891C72.1877 25.4297 64.5315 17.2266 62.9104 3.47656H48.7893V61.3281C50.8205 87.3633 30.5471 88.1445 22.7736 78.2617C31.8752 83.9453 46.6604 80.2539 44.9025 57.8516V0H62.4221ZM24.4924 95.8984C16.5236 94.2578 9.25802 89.4922 5.0002 82.5195C-5.35136 65.5859 3.98458 37.9883 34.0041 35.1562V51.4648H33.9455V39.2383C6.11348 43.6719 3.32052 73.5547 11.0354 85.9961C14.0041 90.7812 18.8869 94.1602 24.4924 95.8984Z" fill="#26F4EE"/>
<path fill-rule="evenodd" clip-rule="evenodd" d="M66.4652 3.47656C67.5199 12.4609 71.1527 20.0977 77.2464 24.5508C68.9847 21.3672 64.1605 14.0625 62.9105 3.47656H66.4652ZM85.5082 28.2227C86.641 28.457 87.8324 28.6328 89.0629 28.7109V44.1797C81.3285 44.9219 74.5707 42.3828 66.68 37.6367L67.891 64.1211C67.891 72.6563 67.93 76.5625 63.3402 84.4141C53.0668 102.031 34.5707 103.418 22.0511 95.0391C38.4183 101.797 63.1839 93.5937 63.1253 64.1211V35.2148C71.016 39.9609 77.7738 42.5 85.5082 41.7383V28.2227ZM33.9457 39.3945C35.5668 39.0625 37.266 38.8086 39.0433 38.6328V54.9414C32.5394 56.0156 28.4183 58.0078 26.4847 61.6992C20.4105 73.3203 28.2425 82.5391 36.9925 83.9258C26.8168 85.625 14.8832 75.293 21.9925 61.6992C23.9261 58.0078 27.4418 56.0156 33.9457 54.9414V39.3945Z" fill="#FB2C53"/>
<path fill-rule="evenodd" clip-rule="evenodd" d="M62.9102 3.47656C64.5118 17.2266 72.1876 25.4297 85.5079 26.2891V41.7383C77.7735 42.5 71.0157 39.9609 63.1251 35.2148V64.1211C63.1837 101.836 22.6173 104.707 11.0157 85.9961C3.30086 73.5547 6.09383 43.6719 33.9259 39.2383V54.9414C27.422 56.0156 23.9063 58.0078 21.9727 61.6992C10.0391 84.5117 51.6602 98.0859 48.7696 61.3281V3.47656H62.9102Z" fill="black"/>
</svg>
