<svg width="16" height="16" viewBox="0 0 16 16" fill="none" xmlns="http://www.w3.org/2000/svg">
<rect width="16" height="16" rx="8" fill="#E17100"/>
<path d="M11.5333 12C10.6074 12 9.69259 11.7981 8.78889 11.3944C7.88519 10.9907 7.06296 10.4185 6.32222 9.67778C5.58148 8.93704 5.00926 8.11481 4.60556 7.21111C4.20185 6.30741 4 5.39259 4 4.46667C4 4.33333 4.04444 4.22222 4.13333 4.13333C4.22222 4.04444 4.33333 4 4.46667 4H6.26667C6.37037 4 6.46296 4.03519 6.54444 4.10556C6.62593 4.17593 6.67407 4.25926 6.68889 4.35556L6.97778 5.91111C6.99259 6.02963 6.98889 6.12963 6.96667 6.21111C6.94444 6.29259 6.9037 6.36296 6.84444 6.42222L5.76667 7.51111C5.91481 7.78519 6.09074 8.05 6.29444 8.30556C6.49815 8.56111 6.72222 8.80741 6.96667 9.04444C7.1963 9.27407 7.43704 9.48704 7.68889 9.68333C7.94074 9.87963 8.20741 10.0593 8.48889 10.2222L9.53333 9.17778C9.6 9.11111 9.68704 9.06111 9.79444 9.02778C9.90185 8.99444 10.0074 8.98519 10.1111 9L11.6444 9.31111C11.7481 9.34074 11.8333 9.39444 11.9 9.47222C11.9667 9.55 12 9.63704 12 9.73333V11.5333C12 11.6667 11.9556 11.7778 11.8667 11.8667C11.7778 11.9556 11.6667 12 11.5333 12Z" fill="#FFFAF5"/>
</svg>
