<svg width="16" height="16" viewBox="0 0 16 16" fill="none" xmlns="http://www.w3.org/2000/svg">
<path d="M8 0C12.4183 0 16 3.58177 16 8.00002C16 12.4183 12.4183 16 8 16C3.58175 16 8.81598e-06 12.4183 0 8.00002C0 3.58177 3.58174 1.39199e-06 8 0ZM7.99454 3.19999C5.0499 3.19999 2.65386 5.14431 2.65386 7.53405C2.65387 9.67654 4.55385 11.4707 7.1204 11.81C7.2943 11.8476 7.53106 11.9247 7.59091 12.0733C7.6447 12.2083 7.62613 12.4199 7.60823 12.5562C7.60823 12.5562 7.5455 12.9331 7.53195 13.0134C7.50864 13.1484 7.42463 13.5415 7.99454 13.3014C8.56459 13.0612 11.0702 11.4903 12.1907 10.2007H12.1905C12.9644 9.35185 13.3353 8.49049 13.3353 7.53405C13.3353 5.1443 10.9394 3.19999 7.99454 3.19999ZM4.88662 6.37928C4.94271 6.37929 4.98853 6.42519 4.98853 6.48123V8.33133H6.00829C6.06439 8.33133 6.11031 8.37723 6.11031 8.43328V8.81202C6.11031 8.86832 6.06464 8.91397 6.00829 8.91397H4.50784C4.4515 8.91397 4.40589 8.86831 4.40589 8.81202V6.48123C4.40589 6.42493 4.4515 6.37928 4.50784 6.37928H4.88662ZM11.5586 6.37928C11.6146 6.37928 11.6605 6.42518 11.6605 6.48123V6.85997C11.6605 6.91627 11.6149 6.96196 11.5586 6.96196H10.5388V7.35527H11.5586C11.6146 7.35527 11.6605 7.40117 11.6605 7.45722V7.83596C11.6605 7.89226 11.6149 7.93798 11.5586 7.93798H10.5388V8.33133H11.5586C11.6146 8.33133 11.6605 8.37723 11.6605 8.43328V8.81202C11.6605 8.86832 11.6149 8.91397 11.5586 8.91397H10.058C10.0017 8.91396 9.95612 8.86831 9.95612 8.81202V6.48123C9.95612 6.42494 10.0017 6.37929 10.058 6.37928H11.5586ZM6.91158 6.37924C6.96793 6.37925 7.01357 6.4249 7.01357 6.4812V8.81202C7.01356 8.86831 6.96792 8.91393 6.91158 8.91393H6.53281C6.47652 8.91393 6.4309 8.8683 6.43089 8.81202V6.4812C6.4309 6.4249 6.47652 6.37925 6.53281 6.37924H6.91158ZM7.85641 6.37924C7.8576 6.37924 7.85876 6.37939 7.85985 6.37939C7.86175 6.37944 7.86355 6.37957 7.86534 6.37972C7.86719 6.37987 7.86899 6.38009 7.87084 6.38034C7.87229 6.38054 7.87376 6.38075 7.87516 6.381C7.8772 6.3814 7.87919 6.38186 7.88124 6.38236C7.88243 6.3826 7.88363 6.38289 7.88483 6.38323C7.88693 6.38388 7.889 6.3845 7.89105 6.38525C7.89215 6.38565 7.89325 6.38605 7.89435 6.38649C7.89639 6.38724 7.89834 6.38814 7.90028 6.38898C7.90143 6.38953 7.90248 6.39007 7.90358 6.39067C7.90547 6.39157 7.90733 6.39266 7.90918 6.39371C7.91023 6.39436 7.91129 6.39491 7.91229 6.39561C7.91414 6.39681 7.91598 6.39806 7.91768 6.39931C7.91863 6.40001 7.91956 6.40071 7.92046 6.40136C7.92235 6.40291 7.92419 6.40446 7.92599 6.40605C7.92658 6.40664 7.92728 6.40719 7.92793 6.40773C7.93003 6.40978 7.9321 6.41194 7.93405 6.41414C7.9343 6.41439 7.93454 6.41466 7.93474 6.41491C7.93764 6.41821 7.94045 6.42176 7.94294 6.42546L9.00935 7.86558V6.4812C9.00936 6.4249 9.05501 6.37924 9.11131 6.37924H9.49004C9.54634 6.37924 9.59199 6.4249 9.59199 6.4812V8.81202C9.59199 8.86831 9.54634 8.91393 9.49004 8.91393H9.11339C9.10414 8.91393 9.09523 8.91267 9.08673 8.91042C9.08624 8.91032 9.08573 8.91016 9.08523 8.91002C9.08283 8.90942 9.08053 8.90859 9.07824 8.90774C9.07714 8.9074 9.07607 8.90706 9.07498 8.90661C9.07328 8.90591 9.07164 8.9052 9.07 8.90445C9.0683 8.9037 9.06665 8.90288 9.06505 8.90203C9.06401 8.90148 9.06305 8.90101 9.06205 8.90046C9.0599 8.89921 9.05774 8.89789 9.05564 8.89654C9.05529 8.89629 9.0549 8.89599 9.05451 8.8957C9.04456 8.88895 9.03556 8.88039 9.02821 8.86999L7.96045 7.42811V8.81202C7.96044 8.86831 7.91479 8.91393 7.8585 8.91393H7.47976C7.42342 8.91393 7.37774 8.86831 7.37773 8.81202V6.4812C7.37774 6.4249 7.42341 6.37924 7.47976 6.37924H7.85641Z" fill="#E17100"/>
</svg>
