<svg width="16" height="16" viewBox="0 0 16 16" fill="none" xmlns="http://www.w3.org/2000/svg">
<rect width="16" height="16" rx="8" fill="#E17100"/>
<path d="M11.9203 6.4001C11.9203 6.4001 11.8422 5.84854 11.6016 5.60635C11.2969 5.2876 10.9563 5.28604 10.8 5.26729C9.68125 5.18604 8.00156 5.18604 8.00156 5.18604H7.99844C7.99844 5.18604 6.31875 5.18604 5.2 5.26729C5.04375 5.28604 4.70313 5.2876 4.39844 5.60635C4.15781 5.84854 4.08125 6.4001 4.08125 6.4001C4.08125 6.4001 4 7.04854 4 7.69541V8.30166C4 8.94853 4.07969 9.59697 4.07969 9.59697C4.07969 9.59697 4.15781 10.1485 4.39687 10.3907C4.70156 10.7095 5.10156 10.6985 5.27969 10.7329C5.92031 10.7938 8 10.8126 8 10.8126C8 10.8126 9.68125 10.8095 10.8 10.7298C10.9563 10.711 11.2969 10.7095 11.6016 10.3907C11.8422 10.1485 11.9203 9.59697 11.9203 9.59697C11.9203 9.59697 12 8.9501 12 8.30166V7.69541C12 7.04854 11.9203 6.4001 11.9203 6.4001ZM7.17344 9.0376V6.78916L9.33437 7.91728L7.17344 9.0376Z" fill="white"/>
</svg>
